<svg xmlns="http://www.w3.org/2000/svg" viewBox="0 0 80 40"><path fill="#FFC740" d="M.1 21.8l2.7 12.8 77.1-16.4-2.7-12.8"/><g fill="#005EC7"><path d="M27 8.9l-1.5-2.2-.8 2.6 2.3-.4zm1.4 1.9l-4.4.8-.7 2.1-2.3.5 3.5-11.5.6-.1 6.8 9.7-2.3.4-1.2-1.9zM36.7 11.1h4v2.2l-6.2-.2.2-10.7 2.2.1M45.9 1.4l-2.2.2.9 10.6 6.1-.5-.2-2.1-4 .3M22.2 29.5l4.5 1.1-1.6 6.4-2.1-.5.2-1c-1.5.7-2.8.6-3.6.4-3-.7-4.8-3.7-4.1-6.7.7-3 3.7-4.8 6.7-4.1 1.3.3 2.3 1 3 2l-1.9 1.1c-.4-.5-1-.8-1.7-1-.9-.2-1.8-.1-2.6.4s-1.3 1.2-1.5 2.1c-.2.9-.1 1.8.4 2.6s1.2 1.3 2.1 1.6c.9.2 1.8.1 2.5-.4.5-.3 1-.8 1.3-1.3l-2.4-.6.8-2.1zM31.6 30.6c0 1.9 1.5 3.4 3.4 3.4 1.8 0 3.3-1.5 3.3-3.4 0-1.8-1.5-3.3-3.3-3.3-1.9-.1-3.4 1.4-3.4 3.3m8.9 0c0 3.1-2.5 5.6-5.6 5.6-3.1 0-5.6-2.5-5.6-5.6 0-3.1 2.5-5.6 5.6-5.6 3.1 0 5.6 2.5 5.6 5.6M50.3 27.6l.3 5.9-6.2-5.6h-.7l.6 10.7 2.1-.1-.3-6.3 6.3 6h.6l-.6-10.8M64.2 27.6l-4.9-.6-.3 1.9 4.1.6-.3 2.1-4-.5-.3 2.3 4.9.6-.3 2.1-7-.9 1.3-10.6 7.1.9"/></g></svg>