<?xml version="1.0" encoding="utf-8"?>
<!-- Generator: Adobe Illustrator 18.1.1, SVG Export Plug-In . SVG Version: 6.00 Build 0)  -->
<svg version="1.1" id="Layer_1" xmlns="http://www.w3.org/2000/svg" xmlns:xlink="http://www.w3.org/1999/xlink" x="0px" y="0px"
	 viewBox="0 0 1184.8 540.6" enable-background="new 0 0 1184.8 540.6" xml:space="preserve">
<g>
	<polygon fill="#005EC7" points="408,180.3 409.9,192.1 426.3,189.5 433.8,236.8 445.6,234.9 438.1,187.6 454.5,185 452.6,173.2
		"/>
	<polygon fill="#005EC7" points="487.6,154.2 484.7,213.9 496.7,214.5 497.9,189.6 520,190.6 518.8,215.5 530.7,216.1 533.6,156.4
		521.6,155.8 520.5,178.7 498.4,177.6 499.5,154.7 	"/>
	<path fill="#005EC7" d="M590.9,210l-7.4-12.7l-5.6,13.9L590.9,210z M597.5,221.4l-24.7,2.2l-4.6,11.6l-13.4,1.2L580,174l3.5-0.3
		l33.4,57.2l-13.2,1.2L597.5,221.4z"/>
	<polygon fill="#005EC7" points="685.1,218 657.3,178.3 651.9,212.8 640.1,210.9 649.4,151.8 653.1,152.3 680.5,190.6 685.8,157.5
		697.6,159.4 688.2,218.5 	"/>
	<polygon fill="#005EC7" points="752.6,175 735.5,194.6 735.1,175.3 723.1,175.6 724.4,235.4 736.4,235.1 735.9,212.5 740.4,207.7
		756.3,234.7 770.5,234.4 748.3,198.5 768.7,174.6 	"/>
	<polygon fill="#005EC7" points="544.7,301 529.3,340.8 531.5,362.6 519.7,363.9 517.4,342 493.9,306.4 507.1,305 521.7,326.1
		531.5,302.4 	"/>
	<path fill="#005EC7" d="M699.5,338.8c-1.8,12.7-13.5,21.5-26.1,19.7c-12.7-1.8-21.5-13.5-19.8-26.1l5.3-37.5l11.8,1.7l-5.3,37.4
		c-0.4,3,0.4,5.9,2.2,8.3c1.8,2.4,4.5,3.9,7.4,4.3c3,0.4,5.8-0.3,8.2-2.1c2.4-1.8,3.9-4.4,4.4-7.3l-0.1,0l5.3-37.5l11.8,1.7
		L699.5,338.8L699.5,338.8z"/>
	<g>
		<path fill="#005EC7" d="M578.8,312.1c-1.1,10.3,6.4,19.5,16.6,20.6c10.3,1.1,19.5-6.4,20.6-16.6c1.1-10.3-6.4-19.5-16.6-20.6
			C589.1,294.4,579.9,301.8,578.8,312.1 M628.3,317.3c-1.8,17-17.1,29.4-34.1,27.6c-17-1.8-29.4-17.1-27.6-34.1
			c1.8-17,17.1-29.4,34.1-27.6C617.7,285,630,300.3,628.3,317.3"/>
	</g>
</g>
<g>
	<path fill="#FFC640" d="M518.2,53.7c-0.1,0.6-1.1,0.9-1.6,1c-0.2,0-0.5,0-0.7,0c0.1-0.6,0.4-1.2,1.1-1.5
		C517.4,53.1,518.3,53.1,518.2,53.7 M518.8,58.6c0.2-0.1,0.8-0.7,1.1-0.6c0.2,0,0.3,0.2,0.3,0.4c0,0.4-0.3,0.6-0.7,0.7
		c-0.4,0.1-0.8,0-1.2-0.2C518.5,58.8,518.7,58.7,518.8,58.6 M511.5,49.2c0.2-0.4,1.3-1.2,1.6-0.5c0.4,0.8-1.3,1.2-1.8,1.4
		c-0.1,0-0.1,0-0.2,0C511.2,49.8,511.3,49.5,511.5,49.2 M504.5,47c0.3-0.7,1.1-0.9,1.2,0.1c0.1,0.8-0.4,1.5-0.9,2
		c-0.1-0.2-0.2-0.4-0.3-0.7C504.3,47.9,504.3,47.4,504.5,47 M499,47.5c0.5-0.3,1.2-0.1,1.6,0.3c0.5,0.5,0.5,1.2,0.2,1.8
		c-0.2,0.4-0.5,0.7-0.9,0.9c-0.2-0.1-0.3-0.1-0.5-0.2C498.5,49.7,497.9,48.1,499,47.5 M517.4,51.8c-1.5,0-2.6,1.3-2.9,2.7
		c-0.7-0.3-1.3-0.7-1.8-1.1c-0.5-0.5-1.1-1.1-1.4-1.8c1-0.2,2-0.5,2.7-1.3c0.6-0.7,0.7-1.8,0.1-2.5c-0.7-0.8-1.9-0.7-2.8-0.2
		c-0.8,0.5-1.3,1.4-1.5,2.3c0,0.2-0.1,0.4-0.1,0.6c-1.4,0.3-3,0.3-4.1-0.3c1-1,1.8-2.4,1.2-3.9c-0.4-0.9-1.3-1.4-2.2-1.1
		c-0.8,0.3-1.4,1.1-1.6,1.9c-0.2,1,0,2,0.6,2.9c-0.1,0-0.2,0.1-0.2,0.1c-0.5,0.2-1.1,0.5-1.7,0.6c0.7-1,0.9-2.2,0.2-3.3
		c-1-1.6-3.5-1.9-4.5-0.2c-0.7,1.1-0.4,2.5,0.3,3.5c-2.1-0.4-4.4-2-6.6-1.1c-1.4,0.5-2.2,1.9-2.4,3.4c-0.2,1.8,0.7,3.5,1.5,5.1
		c0.4,0.8,1.6,0.1,1.2-0.7c-0.9-1.7-2.4-4.9-0.2-6.3c1.3-0.8,3,0,4.2,0.4c1.4,0.5,3,1,4.4,0.5c1.5,0.3,3.3-0.2,4.6-0.9
		c0,0,0,0,0.1,0c0.1,0.1,0.3,0.2,0.4,0.3c1.5,1,3.3,0.9,5,0.5c0.5,1.4,1.6,2.6,2.9,3.3c0.5,0.3,1.1,0.6,1.7,0.7c0.2,1,0.8,2,1.5,2.9
		c-0.1,0.1-0.2,0.1-0.3,0.2c-1.2,0.8-2.3,1.5-3.5,2.3c-0.7,0.5,0,1.7,0.7,1.2c1.4-0.9,2.7-1.8,4.1-2.7c0.3,0.3,0.7,0.5,1.1,0.6
		c0.9,0.3,2,0.3,2.7-0.4c0.7-0.6,0.9-1.6,0.4-2.5c-0.5-0.8-1.4-1-2.2-0.7c-0.7,0.3-1.3,0.7-1.9,1.2c-0.4-0.5-0.8-1.1-1-1.5
		c-0.1-0.1-0.1-0.2-0.1-0.3c0.9,0,1.7-0.2,2.5-0.7c0.7-0.5,1.3-1.4,1-2.3C519.3,52.2,518.3,51.7,517.4,51.8"/>
	<path fill="#005EC6" d="M472.3,76.4c-0.4,0.2-0.8,0.1-1-0.3L460,57.4c-0.2-0.4-0.1-0.8,0.3-1c0.4-0.2,0.8-0.1,1,0.3l11.3,18.7
		C472.8,75.7,472.7,76.2,472.3,76.4"/>
	<path fill="#005EC6" d="M463.3,55.4c0.9,1.4,0.4,3.3-1,4.2s-3.3,0.4-4.2-1c-0.9-1.4-0.4-3.3,1-4.2C460.5,53.5,462.4,54,463.3,55.4"
		/>
	<path fill="#FF7361" d="M515.5,74.7L465.1,105c-0.8,0.5-1.8,0.2-2.3-0.6l-10.3-17.2c-0.5-0.8-0.2-1.8,0.6-2.3l50.4-30.3
		c0.8-0.5,1.8-0.2,2.3,0.6L516,72.4C516.5,73.2,516.3,74.2,515.5,74.7"/>
	<path fill="#FFFFFF" d="M463.7,81.5c-0.4,0.2-0.8,0.1-1-0.3l-11.3-18.7c-0.2-0.4-0.1-0.8,0.3-1s0.8-0.1,1,0.3L464,80.5
		C464.2,80.8,464.1,81.3,463.7,81.5"/>
	<path fill="#FF7361" d="M454.7,60.6c0.9,1.4,0.4,3.3-1,4.2c-1.4,0.9-3.3,0.4-4.2-1c-0.9-1.4-0.4-3.3,1-4.2
		C451.9,58.6,453.8,59.1,454.7,60.6"/>
	<path fill="#FFFFFF" d="M452.7,88.7l3.3,5.5c-1.6,1-3.5,0.4-4.4-1.1C450.7,91.6,451.1,89.7,452.7,88.7"/>
	<path fill="#005EC6" d="M456.6,95.2L456.6,95.2c-0.3,0.2-0.6,0.1-0.8-0.2l-3.8-6.4c-0.2-0.3-0.1-0.6,0.2-0.8
		c0.3-0.2,0.6-0.1,0.8,0.2l3.8,6.4C457,94.7,456.9,95.1,456.6,95.2"/>
	<path fill="#005EC6" d="M457.7,96.9l3.3,5.5c-1.6,1-3.5,0.4-4.4-1.1C455.7,99.8,456,97.9,457.7,96.9"/>
	<path fill="#FFFFFF" d="M461.6,103.5L461.6,103.5c-0.3,0.2-0.6,0.1-0.8-0.2l-3.8-6.4c-0.2-0.3-0.1-0.6,0.2-0.8
		c0.3-0.2,0.6-0.1,0.8,0.2l3.8,6.4C462,103,461.9,103.3,461.6,103.5"/>
	<path fill="#FFFFFF" d="M516.8,71.1L516.8,71.1c-0.6,0.4-1.5,0.2-1.8-0.5l-7.9-13.1c-0.4-0.6-0.2-1.5,0.5-1.8
		c0.6-0.4,1.5-0.2,1.8,0.5l7.9,13.1C517.7,69.9,517.4,70.7,516.8,71.1"/>
	<path fill="#FF7361" d="M495.4,58.8l-5.5,3.3c-1-1.6-0.4-3.5,1.1-4.4C492.5,56.7,494.4,57.1,495.4,58.8"/>
	<path fill="#FFFFFF" d="M488.9,62.7L488.9,62.7c-0.2-0.3-0.1-0.6,0.2-0.8l6.4-3.8c0.3-0.2,0.6-0.1,0.8,0.2c0.2,0.3,0.1,0.6-0.2,0.8
		l-6.4,3.8C489.4,63,489,62.9,488.9,62.7"/>
	<path fill="#005EC6" d="M490.1,63.8c-4.9,2.9-17.8,10.7-22.7,13.6c-7.1,4.3-9.5,13.6-5.2,20.7c4.3,7.1,13.6,9.5,20.7,5.2
		c4.9-2.9,7.5-8.2,7.3-13.5c4.6,2.7,10.5,2.8,15.4-0.1c7.1-4.3,9.5-13.6,5.2-20.7C506.5,61.8,497.2,59.5,490.1,63.8"/>
	<path fill="#FFC640" d="M469.1,104.3c-0.3,0.2-0.8,0.3-1.2,0.2c-0.9-0.2-1.4-1-1.2-1.9l6.8-29.7c0.2-0.9,1-1.4,1.9-1.2
		c0.9,0.2,1.4,1,1.2,1.9l-6.8,29.7C469.8,103.8,469.5,104.1,469.1,104.3"/>
	<path fill="#FFC640" d="M475.5,104.8c-0.3,0.2-0.8,0.3-1.2,0.2c-0.9-0.2-1.4-1-1.2-1.9l7.9-34.6c0.2-0.9,1-1.4,1.9-1.2
		c0.9,0.2,1.4,1,1.2,1.9l-7.9,34.6C476.2,104.2,475.9,104.5,475.5,104.8"/>
	<path fill="#FFC640" d="M480.9,103.7l9.3-40.4c0.4-1.6,6.5-2.5,6.2-1l-8.8,38.6C487.3,101.7,480.5,105.3,480.9,103.7"/>
	<path fill="#FFFFFF" d="M489.6,88.7c0.4-0.3,1-0.3,1.4,0c4.3,2.5,9.7,2.5,14-0.1c6.5-3.9,8.6-12.4,4.7-18.8
		c-3.9-6.5-12.4-8.6-18.8-4.7l-22.7,13.6c-6.5,3.9-8.6,12.4-4.7,18.8c3.9,6.5,12.4,8.6,18.8,4.7c4.3-2.6,6.8-7.3,6.7-12.3
		C488.9,89.4,489.1,88.9,489.6,88.7 M506.3,90.9c-4.5,2.7-10,3.1-14.8,1.1c-0.5,5.1-3.4,9.8-7.9,12.5c-7.8,4.7-17.9,2.2-22.6-5.6
		c-4.7-7.8-2.2-17.9,5.6-22.6l22.7-13.6c7.8-4.7,17.9-2.2,22.6,5.6C516.7,76.1,514.1,86.2,506.3,90.9"/>
	<path fill="#005EC6" d="M447.8,50.3c-0.1,0-0.3,0-0.4-0.1c-0.4-0.2-0.5-0.7-0.2-1c2.7-4.4,6.7-6.8,11.9-7.4c0.4,0,0.8,0.3,0.8,0.7
		c0,0.4-0.3,0.8-0.7,0.8c-4.8,0.5-8.3,2.6-10.8,6.6C448.2,50.2,448,50.3,447.8,50.3"/>
	<path fill="#005EC6" d="M451.8,51.8c-0.1,0-0.3,0-0.4-0.1c-0.4-0.2-0.5-0.7-0.3-1c1.7-3.1,4.2-4.6,7.6-4.7c0.4,0,0.8,0.3,0.8,0.7
		c0,0.4-0.3,0.8-0.7,0.8c-2.8,0-4.9,1.3-6.3,3.9C452.3,51.7,452.1,51.8,451.8,51.8"/>
	<path fill="#005EC6" d="M455.8,53.4c-0.1,0-0.2,0-0.3-0.1c-0.4-0.2-0.6-0.6-0.4-1c0.4-0.9,1.3-2.1,3.3-2.1c0.4,0,0.8,0.3,0.8,0.8
		c0,0.4-0.3,0.8-0.8,0.8c-1.3,0-1.7,0.6-1.9,1.1C456.3,53.2,456.1,53.3,455.8,53.4"/>
</g>
<g>
	<path fill="#FF7361" d="M251.9,93.5c3.6,3.5,5.4,8.7,4.8,13.7c-0.6,5.1-3.7,9.7-8.1,12.4c-4.8,2.9-10.7,2.8-15.8,1
		c-5.7-2-10.4-6-14.6-10.4c-2.1-2.2-4-4.7-6.3-6.7c-2.2-2-4.8-3.4-7.8-4.1c-5.3-1.1-11.1-0.3-16.2,1.4c-5,1.7-9.4,4.6-13.2,8.3
		c-3.9,3.7-7.1,8.1-10.8,12c-3.6,3.9-7.7,7.3-12.8,9.1c-5,1.7-10.3,2-15.5,1.8c-10.1-0.3-20.5-2.3-30.3,1.1c-4.4,1.5-8.4,4.3-11,8.2
		c-2.5,3.7-3.7,8.1-3.6,12.5c0,4.4,1.4,8.8,4.1,12.3c2.7,3.5,6.7,6.3,8.4,10.5c1,2.4,0.7,4.9-0.4,7.2c-1.3,2.7-3.4,4.9-4.5,7.7
		c-1.8,4.5-1.1,9.7,1.3,13.9c2.7,4.7,7.7,7.7,13,8.7c5.3,1,10.4-0.7,15.7-1.1c2.5-0.2,4.9,0,7.2,1.2c0.8,0.4,1.3-0.8,0.6-1.2
		c-4.6-2.4-9.8-1.1-14.6-0.3c-2.7,0.4-5.4,0.6-8.2,0.2c-2.8-0.5-5.6-1.5-7.9-3.2c-4.2-3-6.9-8.1-6.6-13.3c0.1-2.7,1.1-5.1,2.6-7.4
		c1.6-2.5,3.5-4.9,3.9-7.9c0.7-4.5-2.3-8.2-5.2-11.3c-1.5-1.7-3.2-3.3-4.5-5.2c-1.3-1.8-2.2-3.9-2.8-6.1c-1.1-4.4-0.7-9.1,1-13.3
		c1.8-4.4,5.2-7.8,9.5-9.9c9.3-4.5,20.1-2.8,30.1-2.3c5.2,0.3,10.4,0.3,15.5-0.9c5.1-1.2,9.5-3.8,13.3-7.4
		c3.9-3.6,7.1-7.9,10.7-11.8c3.6-4,7.7-7.5,12.6-9.8c5-2.3,10.6-3.4,16.1-3c3.2,0.3,6.2,1.3,8.7,3.3c2.4,1.9,4.3,4.4,6.4,6.6
		c4.1,4.4,8.6,8.5,14.2,10.9c4.8,2.1,10.4,2.8,15.4,1.1c4.7-1.6,8.6-5.3,10.7-9.8c2-4.5,1.9-9.7,0-14.2c-0.9-2.1-2.2-4.1-3.9-5.7
		C252.2,91.9,251.3,92.9,251.9,93.5"/>
	<path fill="#FF7361" d="M142.8,221.1c5.2,2.5,7.5,8.8,5,14c-2.5,5.2-8.8,7.5-14,5c-5.2-2.5-7.5-8.8-5-14
		C131.3,220.8,137.6,218.6,142.8,221.1"/>
	<path fill="#FF7361" d="M154.5,196.5c5.2,2.5,7.5,8.8,5,14c-2.5,5.2-8.8,7.5-14,5c-5.2-2.5-7.5-8.8-5-14
		C142.9,196.3,149.2,194,154.5,196.5"/>
	<path fill="#FF7361" d="M153.5,209.4l-10.3,21.7c-0.4,0.8-1.3,1.1-2.1,0.8l-10.6-5.1c-0.8-0.4-1.1-1.3-0.8-2.1L140,203
		c0.4-0.8,1.3-1.1,2.1-0.8l10.6,5.1C153.5,207.7,153.8,208.7,153.5,209.4"/>
	<path fill="#005EC6" d="M143.2,232.9L143.2,232.9c-0.3,0.6-1,0.9-1.6,0.6l-7.6-3.6c-0.6-0.3-0.9-1-0.6-1.6c0.3-0.6,1-0.9,1.6-0.6
		l7.6,3.6C143.2,231.6,143.5,232.3,143.2,232.9"/>
	<path fill="#005EC6" d="M136,235.5L136,235.5c-0.6-0.3-0.9-1-0.6-1.6l3.6-7.6c0.3-0.6,1-0.9,1.6-0.6c0.6,0.3,0.9,1,0.6,1.6
		l-3.6,7.6C137.3,235.5,136.6,235.8,136,235.5"/>
	<path fill="#FFC640" d="M146.8,201.6c0.9,0.4,1.3,1.6,0.9,2.5c-0.4,0.9-1.6,1.3-2.5,0.9c-0.9-0.4-1.3-1.6-0.9-2.5
		C144.8,201.6,145.9,201.2,146.8,201.6"/>
	<path fill="#FFC640" d="M149,207.9c0.9,0.4,1.3,1.6,0.9,2.5c-0.4,0.9-1.6,1.3-2.5,0.9c-0.9-0.4-1.3-1.6-0.9-2.5
		C147,207.9,148.1,207.5,149,207.9"/>
	<path fill="#FFFFFF" d="M152.5,199.6c0.9,0.4,1.3,1.6,0.9,2.5c-0.4,0.9-1.6,1.3-2.5,0.9s-1.3-1.6-0.9-2.5
		C150.4,199.6,151.5,199.2,152.5,199.6"/>
	<path fill="#FFFFFF" d="M154.7,205.9c0.9,0.4,1.3,1.6,0.9,2.5c-0.4,0.9-1.6,1.3-2.5,0.9c-0.9-0.4-1.3-1.6-0.9-2.5
		C152.6,205.9,153.7,205.5,154.7,205.9"/>
	<path fill="#FFFFFF" d="M134.6,228.3c-0.2,0.1-0.3,0.2-0.4,0.3c-0.1,0.2-0.1,0.3,0,0.5c0.1,0.2,0.2,0.3,0.3,0.4l0.1,0.1
		c0.2,0.1,0.3,0.1,0.5,0c0.2-0.1,0.3-0.2,0.4-0.3c0.1-0.2,0.1-0.3,0-0.5c-0.1-0.2-0.2-0.3-0.3-0.4l-0.1-0.1
		C134.9,228.3,134.7,228.3,134.6,228.3"/>
	<path fill="#FFFFFF" d="M139.3,226.6c-0.4,0.8,0.8,1.3,1.2,0.6C140.9,226.4,139.7,225.8,139.3,226.6"/>
	<path fill="#FFFFFF" d="M141.7,232c-0.4,0.8,0.8,1.3,1.2,0.6C143.2,231.8,142,231.2,141.7,232"/>
	<path fill="#FFFFFF" d="M136,234c-0.4,0.8,0.8,1.3,1.2,0.6C137.5,233.8,136.3,233.3,136,234"/>
	<path fill="#FFFFFF" d="M144.1,217.2l-1,2.1c-0.4,0.8,0.8,1.3,1.2,0.6l1-2.1C145.7,217,144.5,216.5,144.1,217.2"/>
	<path fill="#FFFFFF" d="M142.2,216.4l-0.9,1.9c-0.4,0.9,0.8,1.5,1.2,0.6l0.9-1.9C143.8,216.1,142.6,215.5,142.2,216.4"/>
	<path fill="#005EC6" d="M251.4,83.6c-1.9-5.5,0.9-11.5,6.4-13.4c5.5-1.9,11.5,0.9,13.4,6.4c1.9,5.5-0.9,11.5-6.4,13.4
		C259.3,91.9,253.3,89,251.4,83.6"/>
	<path fill="#005EC6" d="M225.7,92.7c-1.9-5.5,0.9-11.5,6.4-13.4c5.5-1.9,11.5,0.9,13.4,6.4c1.9,5.5-0.9,11.5-6.4,13.4
		C233.7,101,227.7,98.2,225.7,92.7"/>
	<path fill="#005EC6" d="M235.6,84.2l22.6-8.1c0.8-0.3,1.7,0.1,2,1l4,11.1c0.3,0.8-0.1,1.7-1,2l-22.6,8.1c-0.8,0.3-1.7-0.1-2-1
		l-4-11.1C234.3,85.4,234.8,84.5,235.6,84.2"/>
	<path fill="#FF7361" d="M259.4,74.9L259.4,74.9c0.6-0.2,1.3,0.1,1.5,0.7l2.8,8c0.2,0.6-0.1,1.3-0.7,1.5c-0.6,0.2-1.3-0.1-1.5-0.7
		l-2.8-8C258.5,75.8,258.8,75.1,259.4,74.9"/>
	<path fill="#FF7361" d="M266.4,78.2L266.4,78.2c0.2,0.6-0.1,1.3-0.7,1.5l-8,2.8c-0.6,0.2-1.3-0.1-1.5-0.7c-0.2-0.6,0.1-1.3,0.7-1.5
		l8-2.8C265.5,77.3,266.2,77.6,266.4,78.2"/>
	<path fill="#FFC640" d="M234.8,94.5c-0.3-1,0.2-2.1,1.1-2.4c1-0.3,2.1,0.2,2.4,1.1c0.3,1-0.2,2.1-1.1,2.4
		C236.2,96,235.1,95.4,234.8,94.5"/>
	<path fill="#FFC640" d="M237.7,88.4c-0.3-1,0.2-2.1,1.1-2.4c1-0.3,2.1,0.2,2.4,1.1c0.3,1-0.2,2.1-1.1,2.4
		C239.1,89.9,238,89.4,237.7,88.4"/>
	<path fill="#FF7361" d="M229.3,91.9c-0.3-1,0.2-2.1,1.1-2.4c1-0.3,2.1,0.2,2.4,1.1c0.3,1-0.2,2.1-1.1,2.4
		C230.8,93.4,229.7,92.9,229.3,91.9"/>
	<path fill="#FF7361" d="M232.2,85.9c-0.3-1,0.2-2.1,1.1-2.4c1-0.3,2.1,0.2,2.4,1.1c0.3,1-0.2,2.1-1.1,2.4
		C233.6,87.4,232.6,86.9,232.2,85.9"/>
	<path fill="#FFFFFF" d="M262.3,84.3c0.1,0.1,0.4,0.1,0.5,0c0.2-0.1,0.3-0.2,0.4-0.3c0.1-0.2,0.1-0.3,0-0.5l-0.1-0.2
		c-0.1-0.2-0.2-0.3-0.3-0.4c-0.1-0.1-0.4-0.1-0.5,0c-0.2,0.1-0.3,0.2-0.4,0.3c-0.1,0.2-0.1,0.3,0,0.5l0.1,0.2
		C262,84.1,262.1,84.2,262.3,84.3"/>
	<path fill="#FFFFFF" d="M257.7,82.1c0.8-0.3,0.4-1.5-0.4-1.2S256.9,82.4,257.7,82.1"/>
	<path fill="#FFFFFF" d="M259.9,76.6c0.8-0.3,0.4-1.5-0.4-1.2C258.6,75.7,259.1,76.9,259.9,76.6"/>
	<path fill="#FFFFFF" d="M265.3,79.2c0.8-0.3,0.4-1.5-0.4-1.2C264.1,78.3,264.5,79.5,265.3,79.2"/>
	<path fill="#FFFFFF" d="M247.7,85.3l2.2-0.8c0.8-0.3,0.4-1.5-0.4-1.2l-2.2,0.8C246.4,84.4,246.9,85.6,247.7,85.3"/>
	<path fill="#FFFFFF" d="M248.5,87.3l2-0.7c0.9-0.3,0.5-1.6-0.4-1.2l-2,0.7C247.1,86.4,247.6,87.6,248.5,87.3"/>
</g>
<g>
	<g>
		<path fill="#005EC6" d="M260.4,224.8l14.6-27.4c0.4-0.7,1.3-1,2-0.6l48.3,25.7c0.7,0.4,1,1.3,0.6,2l-14.6,27.4
			c-0.4,0.7-1.3,1-2,0.6L261,226.8C260.2,226.5,260,225.5,260.4,224.8"/>
		<path fill="#FF7361" d="M287.1,235l11.2-21.1c0.4-0.7,1.3-1,2-0.6l20.4,10.9c0.7,0.4,1,1.3,0.6,2l-11.2,21.1c-0.4,0.7-1.3,1-2,0.6
			L287.7,237C287,236.6,286.7,235.7,287.1,235"/>
		<path fill="#FFFFFF" d="M278,231l11.9-22.4c0.2-0.3,0.6-0.5,1-0.3l2.3,1.2c0.3,0.2,0.5,0.6,0.3,1l-11.9,22.4
			c-0.2,0.3-0.6,0.5-1,0.3l-2.3-1.2C277.9,231.8,277.8,231.3,278,231"/>
		<path fill="#FF7361" d="M279.5,230.5l10.8-20.2c0.2-0.4,0.7-0.5,1.1-0.3c0.4,0.2,0.6,0.7,0.4,1L281,231.2
			c-0.2,0.4-0.7,0.5-1.1,0.3C279.5,231.3,279.3,230.8,279.5,230.5"/>
		<path fill="#FF7361" d="M288.2,216c-1.2-0.6-1.6-2.1-1-3.3c0.6-1.2,2.1-1.6,3.3-1c1.2,0.6,1.6,2.1,1,3.3
			C290.8,216.2,289.3,216.6,288.2,216"/>
		<path fill="#FFFFFF" d="M272.1,227.8l11.9-22.4c0.2-0.3,0.6-0.5,1-0.3l2.3,1.2c0.3,0.2,0.5,0.6,0.3,1l-11.9,22.4
			c-0.2,0.3-0.6,0.5-1,0.3l-2.3-1.2C272,228.6,271.9,228.2,272.1,227.8"/>
		<path fill="#FFC640" d="M273.6,227.3l10.8-20.2c0.2-0.4,0.7-0.5,1.1-0.3c0.4,0.2,0.6,0.7,0.4,1l-10.8,20.2
			c-0.2,0.4-0.7,0.5-1.1,0.3C273.6,228.2,273.4,227.7,273.6,227.3"/>
		<path fill="#FFC640" d="M277.2,222.3c-1.2-0.6-1.6-2.1-1-3.3c0.6-1.2,2.1-1.6,3.3-1c1.2,0.6,1.6,2.1,1,3.3
			C279.9,222.5,278.4,222.9,277.2,222.3"/>
		<path fill="#FF7361" d="M277,206.4c-1.2-0.6-1.6-2.1-1-3.3c0.6-1.2,2.1-1.6,3.3-1c1.2,0.6,1.6,2.1,1,3.3
			C279.7,206.6,278.2,207.1,277,206.4"/>
		<path fill="#FFFFFF" d="M273.6,212.8c-1.2-0.6-1.6-2.1-1-3.3c0.6-1.2,2.1-1.6,3.3-1c1.2,0.6,1.6,2.1,1,3.3
			C276.3,213,274.8,213.5,273.6,212.8"/>
		<path fill="#FFC640" d="M311.7,227.1l1.9-3.5c0.4-0.7,1.3-1,2-0.6l3.5,1.9c0.7,0.4,1,1.3,0.6,2l-1.9,3.5c-0.4,0.7-1.3,1-2,0.6
			l-3.5-1.9C311.5,228.7,311.3,227.8,311.7,227.1"/>
		<path fill="#FFFFFF" d="M304.5,223.3l1.9-3.5c0.4-0.7,1.3-1,2-0.6l3.5,1.9c0.7,0.4,1,1.3,0.6,2l-1.9,3.5c-0.4,0.7-1.3,1-2,0.6
			l-3.5-1.9C304.4,224.9,304.1,224,304.5,223.3"/>
		<path fill="#FFFFFF" d="M297.3,219.4l1.9-3.5c0.4-0.7,1.3-1,2-0.6l3.5,1.9c0.7,0.4,1,1.3,0.6,2l-1.9,3.5c-0.4,0.7-1.3,1-2,0.6
			l-3.5-1.9C297.2,221.1,296.9,220.2,297.3,219.4"/>
		<path fill="#FFC640" d="M307.7,234.4l1.9-3.5c0.4-0.7,1.3-1,2-0.6l3.5,1.9c0.7,0.4,1,1.3,0.6,2l-1.9,3.5c-0.4,0.7-1.3,1-2,0.6
			l-3.5-1.9C307.6,236,307.3,235.1,307.7,234.4"/>
		<path fill="#FFC640" d="M300.5,230.6l1.9-3.5c0.4-0.7,1.3-1,2-0.6l3.5,1.9c0.7,0.4,1,1.3,0.6,2l-1.9,3.5c-0.4,0.7-1.3,1-2,0.6
			l-3.5-1.9C300.4,232.2,300.1,231.3,300.5,230.6"/>
		<path fill="#FFC640" d="M293.3,226.7l1.9-3.5c0.4-0.7,1.3-1,2-0.6l3.5,1.9c0.7,0.4,1,1.3,0.6,2l-1.9,3.5c-0.4,0.7-1.3,1-2,0.6
			l-3.5-1.9C293.2,228.4,292.9,227.5,293.3,226.7"/>
		<path fill="#FFC640" d="M303.8,241.8l1.9-3.5c0.4-0.7,1.3-1,2-0.6l3.5,1.9c0.7,0.4,1,1.3,0.6,2l-1.9,3.5c-0.4,0.7-1.3,1-2,0.6
			l-3.5-1.9C303.7,243.5,303.4,242.6,303.8,241.8"/>
		<path fill="#FFFFFF" d="M296.6,238l1.9-3.5c0.4-0.7,1.3-1,2-0.6l3.5,1.9c0.7,0.4,1,1.3,0.6,2l-1.9,3.5c-0.4,0.7-1.3,1-2,0.6
			l-3.5-1.9C296.5,239.6,296.2,238.7,296.6,238"/>
		<path fill="#FFC640" d="M289.4,234.2l1.9-3.5c0.4-0.7,1.3-1,2-0.6l3.5,1.9c0.7,0.4,1,1.3,0.6,2l-1.9,3.5c-0.4,0.7-1.3,1-2,0.6
			l-3.5-1.9C289.3,235.8,289,234.9,289.4,234.2"/>
		<path fill="#FF7361" d="M304.9,209.8l-6.9-3.7c1.1-2.1,3.4-2.6,5.3-1.6C305.2,205.5,306,207.7,304.9,209.8"/>
		<path fill="#FFFFFF" d="M291.9,203.9L291.9,203.9c0.3-0.5,0.9-0.7,1.4-0.4l16.5,8.8c0.5,0.3,0.7,0.9,0.4,1.4
			c-0.3,0.5-0.9,0.7-1.4,0.4l-16.5-8.8C291.8,205,291.6,204.4,291.9,203.9"/>
		<path fill="#FF7361" d="M305,193c0-0.1,0-0.3,0-0.5c0.1-0.4,0.6-0.6,1-0.5c4.9,1.6,8.3,4.8,10,9.8c0.1,0.4-0.1,0.8-0.5,1
			c-0.4,0.1-0.8-0.1-1-0.5c-1.6-4.5-4.6-7.4-9-8.8C305.2,193.4,305,193.2,305,193"/>
		<path fill="#FF7361" d="M304.5,197.3c0-0.1,0-0.3,0-0.4c0.1-0.4,0.5-0.7,0.9-0.5c3.4,0.9,5.5,3,6.4,6.2c0.1,0.4-0.1,0.8-0.5,0.9
			c-0.4,0.1-0.8-0.1-0.9-0.5c-0.7-2.7-2.4-4.4-5.3-5.1C304.8,197.7,304.6,197.5,304.5,197.3"/>
		<path fill="#FF7361" d="M304,201.5c0-0.1,0-0.2,0-0.3c0.1-0.4,0.4-0.7,0.9-0.6c1,0.1,2.3,0.7,2.8,2.7c0.1,0.4-0.1,0.8-0.5,0.9
			c-0.4,0.1-0.8-0.1-0.9-0.5c-0.3-1.2-1-1.5-1.5-1.6C304.3,202,304,201.8,304,201.5"/>
	</g>
</g>
<path fill="#005EC6" d="M816.2,66.3c-0.1-0.1-0.2-0.1-0.3-0.2C816,66.2,816.1,66.3,816.2,66.3C816.2,66.4,816.2,66.3,816.2,66.3"/>
<g>
	<path fill="#FF7361" d="M752.8,107.5l-6.7-4.4c-0.6-0.4-0.7-1.1-0.4-1.7l5.6-8.6c0.4-0.6,1.1-0.7,1.7-0.4l6.7,4.4
		c0.6,0.4,0.7,1.1,0.4,1.7l-5.6,8.6C754.1,107.7,753.3,107.9,752.8,107.5"/>
	<path fill="#005EC6" d="M754.3,108l-0.3-0.2l0,0l-9.2-6c-0.2-0.1-0.5-0.1-0.7,0.2c-0.1,0.2-0.1,0.5,0.1,0.7l0.3,0.2h0l9.2,6
		c0.2,0.1,0.5,0.1,0.7-0.2C754.6,108.4,754.6,108.1,754.3,108"/>
	<path fill="#005EC6" d="M745.3,101.1l0.3,0.2l0,0l9.2,6c0.2,0.1,0.5,0.1,0.7-0.2c0.1-0.2,0.1-0.5-0.1-0.7l-0.3-0.2l0,0l-9.2-5.9
		c-0.2-0.1-0.5-0.1-0.7,0.2C745,100.6,745.1,100.9,745.3,101.1"/>
	<path fill="#005EC6" d="M746.3,99.5l0.3,0.2v0l9.2,6c0.2,0.1,0.5,0.1,0.7-0.2c0.1-0.2,0.1-0.5-0.1-0.7l-0.3-0.2h0l-9.2-6
		c-0.2-0.1-0.5-0.1-0.7,0.2C746,99,746.1,99.3,746.3,99.5"/>
	<path fill="#FF7361" d="M776.9,109.2l-41.7-27.1c-0.6-0.4-0.7-1.1-0.4-1.7l18.3-28.2c0.4-0.6,1.1-0.7,1.7-0.4l41.7,27.1
		c0.6,0.4,0.7,1.1,0.4,1.7l-18.3,28.2C778.2,109.4,777.4,109.5,776.9,109.2"/>
	<path fill="#FF7361" d="M789.2,44.6L789.2,44.6c-4.1-2.7-9.6-1.5-12.3,2.6l-8.5,13l14.9,9.7l8.5-13
		C794.5,52.7,793.3,47.2,789.2,44.6"/>
	<path fill="#FFC640" d="M778.9,60.5c-0.9-0.6-1.4-2-0.5-3.6c0-0.1,0.1-0.6,0.1-1.1c0.2-2.2,0.5-4.4,1-5.2c1.4-2.2,4.4-2.8,6.6-1.3
		c2.2,1.4,2.9,4.4,1.4,6.6c-0.5,0.8-2.4,1.9-4.3,3c-0.4,0.2-0.9,0.5-1,0.6C781.3,60.9,779.8,61,778.9,60.5"/>
	<path fill="#005EC6" d="M780.6,61.2l-3.1-2c0,0-0.1-0.1,0-0.1l0.3-0.5c0,0,0.1-0.1,0.1,0l3.1,2c0,0,0.1,0.1,0,0.1l-0.3,0.5
		C780.7,61.2,780.6,61.3,780.6,61.2"/>
	<path fill="#005EC6" d="M778,58.9c0,0-0.1,0-0.1,0l0,0.1c0,0,0,0.1,0,0.1l2.7,1.7c0,0,0.1,0,0.1,0l0-0.1c0,0,0-0.1,0-0.1L778,58.9z
		 M780.2,61.3l-2.7-1.7c-0.3-0.2-0.4-0.6-0.2-0.9l0-0.1c0.2-0.3,0.6-0.4,0.9-0.2l2.7,1.7c0.3,0.2,0.4,0.6,0.2,0.9l0,0.1
		C780.9,61.4,780.5,61.5,780.2,61.3"/>
	<path fill="#005EC6" d="M780.1,61.9l-3.1-2c0,0-0.1-0.1,0-0.1l0.3-0.5c0,0,0.1-0.1,0.1,0l3.1,2c0,0,0.1,0.1,0,0.1l-0.3,0.5
		C780.3,61.9,780.2,61.9,780.1,61.9"/>
	<path fill="#005EC6" d="M777.5,59.6c0,0-0.1,0-0.1,0l0,0.1c0,0,0,0.1,0,0.1l2.7,1.7c0,0,0.1,0,0.1,0l0-0.1c0,0,0-0.1,0-0.1
		L777.5,59.6z M779.8,62l-2.7-1.7c-0.3-0.2-0.4-0.6-0.2-0.9l0-0.1c0.2-0.3,0.6-0.4,0.9-0.2l2.7,1.7c0.3,0.2,0.4,0.6,0.2,0.9l0,0.1
		C780.5,62.1,780.1,62.2,779.8,62"/>
	<path fill="#FFFFFF" d="M776.1,87.6l0.1-2l0.9,1.8C776.8,87.5,776.5,87.6,776.1,87.6 M774.9,84.8l-1.8,0.9c-0.1-0.3-0.2-0.7-0.2-1
		L774.9,84.8z M775.8,81.4l-0.1,2l-0.9-1.8C775.2,81.5,775.5,81.5,775.8,81.4 M777.1,84.3l1.7-0.9c0.1,0.3,0.2,0.6,0.2,1L777.1,84.3
		z M776.8,84.9L779,85c-0.1,0.4-0.2,0.8-0.4,1.1L776.8,84.9z M776.9,85.7l1.4,0.9c-0.2,0.2-0.4,0.4-0.6,0.6L776.9,85.7z M775.6,85.9
		l-0.1,1.7c-0.3,0-0.6-0.1-0.8-0.2L775.6,85.9z M775.4,85.2l-1.2,1.9c-0.3-0.2-0.6-0.5-0.8-0.9L775.4,85.2z M774.6,84.2l-1.7-0.1
		c0-0.3,0.1-0.6,0.3-0.8L774.6,84.2z M775.4,84l-1.9-1.2c0.2-0.3,0.5-0.6,0.9-0.8L775.4,84z M776.3,83.7l0.1-2.3
		c0.4,0.1,0.7,0.2,1.1,0.4L776.3,83.7z M777.1,83.6l0.9-1.4c0.2,0.2,0.4,0.4,0.6,0.7L777.1,83.6z M778.2,81.1
		c-1.9-1.2-4.4-0.7-5.6,1.2c-1.2,1.9-0.7,4.4,1.2,5.6c1.9,1.2,4.4,0.7,5.6-1.2C780.6,84.9,780.1,82.3,778.2,81.1"/>
	<path fill="#FF7361" d="M778.1,86c-0.8,1.2-2.4,1.6-3.7,0.8c-1.2-0.8-1.6-2.4-0.8-3.7s2.4-1.6,3.7-0.8
		C778.6,83.2,778.9,84.8,778.1,86"/>
	<path fill="#005EC6" d="M779.7,62.6l-3.1-2c0,0-0.1-0.1,0-0.1l0.3-0.5c0,0,0.1-0.1,0.1,0l3.1,2c0,0,0.1,0.1,0,0.1l-0.3,0.5
		C779.8,62.6,779.7,62.6,779.7,62.6"/>
	<path fill="#005EC6" d="M777.1,60.3c0,0-0.1,0-0.1,0l0,0.1c0,0,0,0.1,0,0.1l2.7,1.7c0,0,0.1,0,0.1,0l0-0.1c0,0,0-0.1,0-0.1
		L777.1,60.3z M779.3,62.7l-2.7-1.7c-0.3-0.2-0.4-0.6-0.2-0.9l0-0.1c0.2-0.3,0.6-0.4,0.9-0.2l2.7,1.7c0.3,0.2,0.4,0.6,0.2,0.9l0,0.1
		C780,62.8,779.6,62.9,779.3,62.7"/>
	<path fill="#005EC6" d="M778.4,62.7l-1.5-1c0,0-0.1-0.1,0-0.1l0.3-0.5c0,0,0.1-0.1,0.1,0l1.5,1c0,0,0.1,0.1,0,0.1l-0.3,0.5
		C778.5,62.7,778.5,62.8,778.4,62.7"/>
	<path fill="#005EC6" d="M777.5,61.5c0,0-0.1,0-0.1,0l0,0.1c0,0,0,0.1,0,0.1l1,0.7c0,0,0.1,0,0.1,0l0-0.1c0,0,0-0.1,0-0.1
		L777.5,61.5z M778.1,62.8l-1-0.7c-0.3-0.2-0.4-0.6-0.2-0.9l0-0.1c0.2-0.3,0.6-0.4,0.9-0.2l1,0.7c0.3,0.2,0.4,0.6,0.2,0.9l0,0.1
		C778.8,62.9,778.4,63,778.1,62.8"/>
	<path fill="#005EC6" d="M784.9,71.4l-18.5-12c-0.1-0.1-0.2-0.3-0.1-0.4l0.9-1.3c0.1-0.1,0.3-0.2,0.4-0.1l18.5,12
		c0.1,0.1,0.2,0.3,0.1,0.4l-0.9,1.4C785.2,71.5,785.1,71.5,784.9,71.4"/>
	<path fill="#005EC6" d="M777.1,85.4c-0.4,0.7-1.3,0.8-2,0.4c-0.7-0.4-0.8-1.3-0.4-2c0.4-0.7,1.3-0.8,2-0.4
		C777.4,83.8,777.5,84.7,777.1,85.4"/>
	<path fill="#FF7361" d="M786,97.3l6.8-10.5c3.2,2.1,3.7,5.8,1.8,8.7C792.8,98.4,789.2,99.4,786,97.3"/>
	<path fill="#005EC6" d="M749.1,58.5L742.3,69c-3.2-2.1-3.7-5.8-1.8-8.7C742.3,57.4,745.9,56.4,749.1,58.5"/>
	<path fill="#005EC6" d="M750.4,93.2l0.3,0.2v0l9.2,6c0.2,0.1,0.5,0.1,0.7-0.2c0.1-0.2,0.1-0.5-0.1-0.7l-0.3-0.2l-9.2-6
		c-0.2-0.1-0.5-0.1-0.7,0.2C750.1,92.7,750.2,93,750.4,93.2"/>
	<path fill="#005EC6" d="M747.3,97.9l0.3,0.2v0l9.2,6c0.2,0.1,0.5,0.1,0.7-0.2c0.1-0.2,0.1-0.5-0.1-0.7l-0.3-0.2h0l-9.2-6
		c-0.2-0.1-0.5-0.1-0.7,0.2C747.1,97.5,747.1,97.8,747.3,97.9"/>
	<path fill="#005EC6" d="M749.4,94.8l0.3,0.2l0,0l9.2,6c0.2,0.1,0.5,0.1,0.7-0.2c0.1-0.2,0.1-0.5-0.1-0.7l-0.3-0.2l0,0l-9.2-5.9
		c-0.2-0.1-0.5-0.1-0.7,0.2C749.1,94.3,749.1,94.6,749.4,94.8"/>
	<path fill="#005EC6" d="M748.4,96.3l0.3,0.2v0l9.2,6c0.2,0.1,0.5,0.1,0.7-0.2c0.1-0.2,0.1-0.5-0.1-0.7l-0.3-0.2l0,0l-9.2-5.9
		c-0.2-0.1-0.5-0.1-0.7,0.2C748.1,95.9,748.1,96.2,748.4,96.3"/>
	<path fill="#FFFFFF" d="M740.3,70.5L740.3,70.5c-0.4-0.2-0.5-0.8-0.2-1.1l8.2-12.6c0.2-0.4,0.8-0.5,1.1-0.2
		c0.4,0.2,0.5,0.8,0.2,1.1l-8.2,12.6C741.2,70.6,740.7,70.7,740.3,70.5"/>
	<path fill="#005EC6" d="M785.8,99.2L785.8,99.2c-0.4-0.2-0.5-0.8-0.2-1.1l8.2-12.6c0.2-0.4,0.8-0.5,1.1-0.2
		c0.4,0.2,0.5,0.8,0.2,1.1l-8.2,12.6C786.6,99.3,786.1,99.4,785.8,99.2"/>
	<path fill="#FFFFFF" d="M752.7,75.7c-1.1,1.7-3.3,2.1-5,1.1c-1.7-1.1-2.1-3.3-1.1-5c1.1-1.7,3.3-2.1,5-1.1
		C753.3,71.8,753.8,74,752.7,75.7"/>
	<path fill="#FFFFFF" d="M782.1,94.8c-1.1,1.7-3.3,2.1-5,1.1c-1.7-1.1-2.1-3.3-1.1-5c1.1-1.7,3.3-2.1,5-1.1
		C782.7,90.9,783.1,93.1,782.1,94.8"/>
	<path fill="#FFFFFF" d="M757.2,81.7l10.5,6.8c-2.1,3.2-5.8,3.7-8.7,1.8C756.1,88.5,755.1,84.9,757.2,81.7"/>
	<path fill="#005EC6" d="M757.5,83c-0.5,1.1-0.6,2.2-0.4,3.3c0.3,1.3,1.2,2.5,2.4,3.3c1.2,0.8,2.7,1.1,4,0.9
		c1.1-0.2,2.1-0.8,2.9-1.7L757.5,83z M758.5,91.1c-1.6-1.1-2.8-2.6-3.2-4.4c-0.4-1.8,0-3.8,1.1-5.5c0.3-0.4,0.8-0.5,1.2-0.3
		l10.5,6.8c0.4,0.3,0.5,0.8,0.3,1.2c-1.1,1.7-2.8,2.9-4.6,3.2C762,92.6,760.1,92.2,758.5,91.1"/>
	<path fill="#FFFFFF" d="M763.1,76c2-3.1,0.9-6-1.6-7.7c-2.6-1.7-5.7-1.5-7.7,1.6L763.1,76z"/>
	<path fill="#005EC6" d="M763,76.1l-10-6.5l0.4-0.6c1.9-2.9,5.4-3.7,8.3-1.8c2.9,1.9,3.6,5.4,1.7,8.3L763,76.1z"/>
	<path fill="#FFC640" d="M760.2,74.4c-0.8,1.2-2.4,1.6-3.7,0.8c-1.2-0.8-1.6-2.4-0.8-3.7s2.4-1.6,3.7-0.8
		C760.6,71.5,761,73.1,760.2,74.4"/>
	<path fill="#005EC6" d="M759.1,73.7c-0.4,0.7-1.3,0.8-2,0.4c-0.7-0.4-0.9-1.3-0.4-2c0.4-0.7,1.3-0.8,2-0.4
		C759.4,72.1,759.6,73,759.1,73.7"/>
	<path fill="#005EC6" d="M762.6,86.7c-0.3,0.5-0.9,0.6-1.4,0.3c-0.5-0.3-0.6-0.9-0.3-1.4c0.3-0.5,0.9-0.6,1.4-0.3
		C762.7,85.6,762.9,86.2,762.6,86.7"/>
	<path fill="#005EC6" d="M761.8,86.1c0,0-0.1,0-0.1,0c0,0,0,0.1,0,0.1c0,0,0.1,0,0.1,0C761.8,86.2,761.8,86.1,761.8,86.1
		 M760.7,87.7c-0.9-0.6-1.1-1.7-0.6-2.6c0.6-0.9,1.7-1.1,2.6-0.6c0.9,0.6,1.1,1.7,0.6,2.6C762.7,88,761.6,88.3,760.7,87.7"/>
</g>
<g>
	<path fill="#FF7361" d="M413.2,323.4c1.6,2.3,2.2,5,2.7,7.7c0.6,2.8,1.3,5.6,2.4,8.3c1.1,2.7,2.6,5.1,4.2,7.5
		c1.6,2.3,3.3,4.6,4.1,7.3c0.7,2.4,0.5,5.2-0.7,7.4c-1.1,2.1-3.1,3.6-5.4,4.2c-2.3,0.6-4.8,0.4-7-0.4c-2.7-1-5.1-2.8-7-4.9
		c-4.3-4.6-6.9-10.5-11.2-15.1c-0.5-0.6-1.1-1.1-1.7-1.6c-0.4-0.3-0.9,0.2-0.5,0.5c4.9,4.3,7.6,10.5,11.8,15.4
		c2,2.3,4.3,4.5,7.1,5.8c2.2,1,4.7,1.5,7.2,1.3c2.4-0.3,4.7-1.3,6.3-3.1c1.7-1.9,2.5-4.6,2.4-7.1c-0.1-2.8-1.4-5.4-2.9-7.7
		c-1.6-2.5-3.4-4.8-4.7-7.5c-1.4-2.7-2.4-5.6-3.1-8.5c-0.6-2.7-1-5.6-2.2-8.1c-0.3-0.6-0.6-1.2-1-1.8
		C413.6,322.7,412.9,323,413.2,323.4"/>
	<path fill="#FF7361" d="M413.8,322.9c-2.6,10.6-9.4,18.1-21,21.8l-14.7-35.2L413.8,322.9z"/>
	<path fill="#005EC6" d="M398,342.6l-19.9-33.2l35.7,13.5C411.6,331.9,406.5,338.6,398,342.6"/>
	<path fill="#FF7361" d="M404.9,338.1l-26.8-28.7l35.7,13.5C412.3,329.1,409.3,334.2,404.9,338.1"/>
	<path fill="#005EC6" d="M378.1,309.5l35.7,13.5c-0.8,3.3-2,6.3-3.7,9"/>
	<path fill="#FF7361" d="M378.1,309.5l35.7,13.5c-0.2,1-0.5,2-0.9,2.9"/>
</g>
<g>
	<path fill="#FFC640" d="M1058.4,78.5c-1.9,2-4.5,3.2-7,4.3c-2.6,1.2-5.2,2.5-7.6,4.1c-2.4,1.7-4.5,3.6-6.5,5.7
		c-1.9,2-3.8,4.2-6.3,5.5c-2.2,1.2-4.9,1.6-7.4,0.9c-2.3-0.7-4.2-2.3-5.3-4.4c-1.1-2.1-1.4-4.6-1.1-7c0.4-2.9,1.7-5.6,3.4-7.9
		c3.6-5.1,8.8-8.9,12.4-14.1c0.4-0.6,0.9-1.3,1.3-2c0.2-0.4-0.4-0.8-0.6-0.4c-3.2,5.7-8.7,9.7-12.7,14.8c-1.9,2.4-3.5,5.1-4.2,8.1
		c-0.6,2.4-0.5,4.9,0.3,7.3c0.8,2.3,2.2,4.3,4.3,5.5c2.3,1.3,5,1.5,7.5,0.9c2.7-0.7,5-2.5,6.9-4.4c2.1-2.1,4-4.3,6.3-6.2
		c2.4-1.9,4.9-3.5,7.7-4.8c2.5-1.2,5.2-2.2,7.5-3.9c0.6-0.4,1.1-0.9,1.6-1.4C1059.3,78.7,1058.8,78.1,1058.4,78.5"/>
	<path fill="#FF7361" d="M1059,79c-10.9-0.4-19.6-5.4-25.7-16l31.4-21.7L1059,79z"/>
	<path fill="#FFFFFF" d="M1036.5,67.6l28.3-26.4L1059,79C1049.9,78.7,1042.3,75.1,1036.5,67.6"/>
	<path fill="#FF7361" d="M1042.3,73.4l22.5-32.2L1059,79C1052.7,78.7,1047.1,77,1042.3,73.4"/>
	<path fill="#FFFFFF" d="M1064.8,41.2L1059,79c-3.4-0.1-6.6-0.7-9.5-1.7"/>
	<path fill="#FF7361" d="M1064.8,41.2L1059,79c-1,0-2-0.1-3-0.2"/>
</g>
<g>
	<path fill="#005EC6" d="M846.5,378.2c-0.6-5.5,3.1-10.3,6.5-14.2c2.1-2.4,4.2-4.8,6.1-7.3c2.1-2.6,4-5.4,5.8-8.2
		c3.6-5.7,6.4-11.8,8.5-18.3c1-3.2,2-6.4,3.2-9.5c1.2-3,2.7-5.9,4.4-8.7c3.2-5.3,6.9-10.4,8.6-16.5c0.2-0.7,0.4-1.5,0.5-2.2
		c0.1-0.5-0.7-0.6-0.8-0.1c-1.2,6.2-4.8,11.6-8.1,16.9c-1.7,2.7-3.3,5.4-4.5,8.3c-1.3,3.1-2.3,6.3-3.4,9.5c-1,3.2-2.1,6.4-3.5,9.5
		c-1.4,3.1-3,6.1-4.7,9.1c-3.5,5.7-7.6,10.9-12,15.9c-3.4,3.9-7.3,8.4-7.6,13.9c0,0.6,0,1.3,0.1,1.9
		C845.7,378.9,846.5,378.7,846.5,378.2"/>
	<path fill="#FFC640" d="M925.1,282.2c8.2-11.7,5.9-27.5-5.2-35.3c-11.1-7.8-26.7-4.5-34.9,7.2c-8.1,11.6-6,27.1,4.7,35
		c-0.8,1.2-1.8,2.3-3,3.3c-0.2,0.1-0.2,0.4-0.1,0.6c0.8,0.8,1.7,1.4,2.6,1.9l0.3,0.2c0.1,0.1,0.2,0.1,0.3,0.1c0,0,0,0,0,0
		c0.4,0.2,0.9,0.4,1.4,0.5c0.2,0.1,0.4,0.1,0.5,0c0.3-0.1,0.5-0.3,0.7-0.7c0.2-0.6,0.1-1.3,0.2-1.9c0-0.7,0.1-1.4,0.1-2l0,0
		C903.5,296.7,917.5,293.1,925.1,282.2"/>
</g>
<g>
	<path fill="#FF7361" d="M1019.3,243.8l-24.1-19.5c-0.6-0.5-0.7-1.5-0.2-2.1l34.4-42.5c0.5-0.6,1.5-0.7,2.1-0.2l24.1,19.5
		c0.6,0.5,0.7,1.5,0.2,2.1l-34.4,42.5C1020.9,244.2,1020,244.3,1019.3,243.8"/>
	<path fill="#005EC6" d="M1034.4,219.4l-18.5-15c-0.6-0.5-0.7-1.5-0.2-2.1l14.6-18c0.5-0.6,1.5-0.7,2.1-0.2l18.5,15
		c0.6,0.5,0.7,1.5,0.2,2.1l-14.6,18C1036,219.8,1035,219.9,1034.4,219.4"/>
	<path fill="#FFFFFF" d="M1028.7,227.6l-19.8-16c-0.3-0.2-0.4-0.7-0.1-1l1.7-2.1c0.2-0.3,0.7-0.4,1-0.1l19.8,16
		c0.3,0.2,0.4,0.7,0.1,1l-1.7,2.1C1029.5,227.8,1029,227.9,1028.7,227.6"/>
	<path fill="#FF7361" d="M1028.5,226l-17.8-14.4c-0.3-0.3-0.4-0.8-0.1-1.1s0.8-0.4,1.1-0.2l17.8,14.4c0.3,0.3,0.3,0.8,0.1,1.1
		C1029.4,226.2,1028.9,226.3,1028.5,226"/>
	<path fill="#FF7361" d="M1016,214.8c-0.9,1.1-2.4,1.2-3.4,0.4c-1.1-0.9-1.2-2.4-0.4-3.4c0.9-1.1,2.4-1.2,3.4-0.4
		C1016.7,212.2,1016.8,213.7,1016,214.8"/>
	<path fill="#FFFFFF" d="M1024.5,232.8l-19.8-16c-0.3-0.2-0.4-0.7-0.1-1l1.7-2.1c0.2-0.3,0.7-0.4,1-0.1l19.8,16
		c0.3,0.2,0.4,0.7,0.1,1l-1.7,2.1C1025.3,233,1024.8,233.1,1024.5,232.8"/>
	<path fill="#FFC640" d="M1024.3,231.2l-17.8-14.4c-0.3-0.3-0.4-0.7-0.1-1.1c0.3-0.3,0.8-0.4,1.1-0.2l17.8,14.4
		c0.3,0.3,0.3,0.8,0.1,1.1C1025.1,231.4,1024.6,231.5,1024.3,231.2"/>
	<path fill="#FFC640" d="M1020.1,226.7c-0.9,1.1-2.4,1.2-3.4,0.4c-1.1-0.9-1.2-2.4-0.4-3.4c0.9-1.1,2.4-1.2,3.4-0.4
		C1020.8,224.1,1020.9,225.7,1020.1,226.7"/>
	<path fill="#FFC640" d="M1004.5,223.9c-0.9,1.1-2.4,1.2-3.4,0.4c-1.1-0.9-1.2-2.4-0.4-3.4c0.9-1.1,2.4-1.2,3.4-0.4
		C1005.1,221.3,1005.3,222.8,1004.5,223.9"/>
	<path fill="#FFFFFF" d="M1010.1,228.4c-0.9,1.1-2.4,1.2-3.4,0.4c-1.1-0.9-1.2-2.4-0.4-3.4c0.9-1.1,2.4-1.2,3.4-0.4
		C1010.8,225.9,1010.9,227.4,1010.1,228.4"/>
	<path fill="#FFC640" d="M1031.3,193.8l-3.1-2.5c-0.6-0.5-0.7-1.5-0.2-2.1l2.5-3.1c0.5-0.6,1.5-0.7,2.1-0.2l3.1,2.5
		c0.6,0.5,0.7,1.5,0.2,2.1l-2.5,3.1C1032.9,194.3,1032,194.4,1031.3,193.8"/>
	<path fill="#FFFFFF" d="M1026.2,200.2l-3.1-2.5c-0.6-0.5-0.7-1.5-0.2-2.1l2.5-3.1c0.5-0.6,1.5-0.7,2.1-0.2l3.1,2.5
		c0.6,0.5,0.7,1.5,0.2,2.1l-2.5,3.1C1027.8,200.6,1026.9,200.7,1026.2,200.2"/>
	<path fill="#FFFFFF" d="M1021.1,206.5l-3.1-2.5c-0.6-0.5-0.7-1.5-0.2-2.1l2.5-3.1c0.5-0.6,1.5-0.7,2.1-0.2l3.1,2.5
		c0.6,0.5,0.7,1.5,0.2,2.1l-2.5,3.1C1022.7,206.9,1021.7,207,1021.1,206.5"/>
	<path fill="#FFC640" d="M1037.8,199.1l-3.1-2.5c-0.6-0.5-0.7-1.5-0.2-2.1l2.5-3.1c0.5-0.6,1.5-0.7,2.1-0.2l3.1,2.5
		c0.6,0.5,0.7,1.5,0.2,2.1l-2.5,3.1C1039.4,199.5,1038.4,199.6,1037.8,199.1"/>
	<path fill="#FFC640" d="M1032.6,205.4l-3.1-2.5c-0.6-0.5-0.7-1.5-0.2-2.1l2.5-3.1c0.5-0.6,1.5-0.7,2.1-0.2l3.1,2.5
		c0.6,0.5,0.7,1.5,0.2,2.1l-2.5,3.1C1034.2,205.9,1033.3,206,1032.6,205.4"/>
	<path fill="#FFC640" d="M1027.5,211.8l-3.1-2.5c-0.6-0.5-0.7-1.5-0.2-2.1l2.5-3.1c0.5-0.6,1.5-0.7,2.1-0.2l3.1,2.5
		c0.6,0.5,0.7,1.5,0.2,2.1l-2.5,3.1C1029.1,212.2,1028.2,212.3,1027.5,211.8"/>
	<path fill="#FFC640" d="M1044.3,204.4l-3.1-2.5c-0.6-0.5-0.7-1.5-0.2-2.1l2.5-3.1c0.5-0.6,1.5-0.7,2.1-0.2l3.1,2.5
		c0.6,0.5,0.7,1.5,0.2,2.1l-2.5,3.1C1045.9,204.8,1045,204.9,1044.3,204.4"/>
	<path fill="#FFFFFF" d="M1039.2,210.7l-3.1-2.5c-0.6-0.5-0.7-1.5-0.2-2.1l2.5-3.1c0.5-0.6,1.5-0.7,2.1-0.2l3.1,2.5
		c0.6,0.5,0.7,1.5,0.2,2.1l-2.5,3.1C1040.8,211.2,1039.8,211.2,1039.2,210.7"/>
	<path fill="#FFC640" d="M1034.1,217.1l-3.1-2.5c-0.6-0.5-0.7-1.5-0.2-2.1l2.5-3.1c0.5-0.6,1.5-0.7,2.1-0.2l3.1,2.5
		c0.6,0.5,0.7,1.5,0.2,2.1l-2.5,3.1C1035.6,217.5,1034.7,217.6,1034.1,217.1"/>
	<path fill="#005EC6" d="M1013.1,197.2l-4.9,6c-1.8-1.5-1.9-3.8-0.6-5.5C1008.9,196.1,1011.2,195.7,1013.1,197.2"/>
	<path fill="#FFFFFF" d="M1004.9,208.8L1004.9,208.8c-0.4-0.4-0.5-1-0.1-1.4l11.8-14.5c0.4-0.4,1-0.5,1.4-0.2c0.4,0.4,0.5,1,0.1,1.4
		l-11.8,14.5C1005.9,209.1,1005.3,209.2,1004.9,208.8"/>
	<path fill="#005EC6" d="M996.6,193.9c-0.1,0-0.3,0-0.4-0.1c-0.4-0.2-0.5-0.7-0.3-1c2.5-4.5,6.3-7.2,11.5-8c0.4-0.1,0.8,0.2,0.9,0.6
		c0.1,0.4-0.2,0.8-0.6,0.9c-4.7,0.7-8.1,3.1-10.4,7.2C997,193.7,996.8,193.9,996.6,193.9"/>
	<path fill="#005EC6" d="M1000.7,195.2c-0.1,0-0.3,0-0.4-0.1c-0.4-0.2-0.5-0.6-0.4-1c1.5-3.1,3.9-4.8,7.3-5.1c0.4,0,0.8,0.3,0.8,0.7
		c0,0.4-0.3,0.8-0.7,0.8c-2.8,0.2-4.8,1.6-6.1,4.2C1001.2,195,1001,195.2,1000.7,195.2"/>
	<path fill="#005EC6" d="M1004.7,196.5c-0.1,0-0.2,0-0.3,0c-0.4-0.1-0.6-0.6-0.5-1c0.3-1,1.1-2.1,3.2-2.2c0.4,0,0.8,0.3,0.8,0.7
		c0,0.4-0.3,0.8-0.7,0.8c-1.3,0.1-1.6,0.7-1.8,1.2C1005.3,196.3,1005,196.5,1004.7,196.5"/>
</g>
<g>
	<path fill="#FFFFFF" d="M238.3,480.4l-6.6,4.5c-0.5,0.4-1.3,0.2-1.7-0.3l-5.7-8.5c-0.4-0.5-0.2-1.3,0.3-1.7l6.6-4.5
		c0.5-0.4,1.3-0.2,1.7,0.3l5.7,8.5C239,479.3,238.8,480,238.3,480.4"/>
	<path fill="#FFC640" d="M249.2,458.9L208,486.7c-0.5,0.4-1.3,0.2-1.7-0.3l-18.8-27.9c-0.4-0.5-0.2-1.3,0.3-1.7L229,429
		c0.5-0.4,1.3-0.2,1.7,0.3l18.8,27.9C249.9,457.8,249.8,458.5,249.2,458.9"/>
	<path fill="#005EC6" d="M194.6,422.3L194.6,422.3c-4.1,2.7-5.1,8.3-2.4,12.3l8.7,12.9l14.7-9.9l-8.7-12.9
		C204.1,420.6,198.6,419.5,194.6,422.3"/>
	<path fill="#FFC640" d="M205.2,437.9c-0.9,0.6-2.4,0.5-3.5-1c-0.1-0.1-0.5-0.3-0.9-0.5c-1.9-1-3.8-2.1-4.4-2.9
		c-1.5-2.2-0.9-5.1,1.3-6.6s5.1-0.9,6.6,1.2c0.5,0.8,0.8,2.9,1.1,5.1c0.1,0.5,0.1,1,0.1,1.1C206.5,436,206.1,437.3,205.2,437.9"/>
	<path fill="#005EC6" d="M206.5,436.7l-3.1,2.1c0,0-0.1,0-0.1,0l-0.3-0.5c0,0,0-0.1,0-0.1l3.1-2.1c0,0,0.1,0,0.1,0l0.3,0.5
		C206.6,436.6,206.6,436.7,206.5,436.7"/>
	<path fill="#005EC6" d="M203.4,438.2c0,0,0,0.1,0,0.1l0,0.1c0,0,0.1,0,0.1,0l2.6-1.8c0,0,0-0.1,0-0.1l0-0.1c0,0-0.1,0-0.1,0
		L203.4,438.2z M206.5,437.1l-2.6,1.8c-0.3,0.2-0.7,0.1-0.9-0.2l0-0.1c-0.2-0.3-0.1-0.7,0.2-0.9l2.6-1.8c0.3-0.2,0.7-0.1,0.9,0.2
		l0,0.1C206.9,436.5,206.8,436.9,206.5,437.1"/>
	<path fill="#005EC6" d="M207,437.4l-3.1,2.1c0,0-0.1,0-0.1,0l-0.3-0.5c0,0,0-0.1,0-0.1l3.1-2.1c0,0,0.1,0,0.1,0l0.3,0.5
		C207,437.3,207,437.3,207,437.4"/>
	<path fill="#005EC6" d="M203.8,438.9c0,0,0,0.1,0,0.1l0,0.1c0,0,0.1,0,0.1,0l2.6-1.8c0,0,0-0.1,0-0.1l0-0.1c0,0-0.1,0-0.1,0
		L203.8,438.9z M206.9,437.8l-2.6,1.8c-0.3,0.2-0.7,0.1-0.9-0.2l0-0.1c-0.2-0.3-0.1-0.7,0.2-0.9l2.6-1.8c0.3-0.2,0.7-0.1,0.9,0.2
		l0,0.1C207.3,437.1,207.2,437.6,206.9,437.8"/>
	<path fill="#005EC6" d="M207.4,438l-3.1,2.1c0,0-0.1,0-0.1,0l-0.3-0.5c0,0,0-0.1,0-0.1l3.1-2.1c0,0,0.1,0,0.1,0l0.3,0.5
		C207.5,437.9,207.5,438,207.4,438"/>
	<path fill="#005EC6" d="M204.3,439.5c0,0,0,0.1,0,0.1l0,0.1c0,0,0.1,0,0.1,0l2.6-1.8c0,0,0-0.1,0-0.1l0-0.1c0,0-0.1,0-0.1,0
		L204.3,439.5z M207.4,438.4l-2.6,1.8c-0.3,0.2-0.7,0.1-0.9-0.2l0-0.1c-0.2-0.3-0.1-0.7,0.2-0.9l2.6-1.8c0.3-0.2,0.7-0.1,0.9,0.2
		l0,0.1C207.8,437.8,207.7,438.2,207.4,438.4"/>
	<path fill="#005EC6" d="M207.1,439.3l-1.5,1c0,0-0.1,0-0.1,0l-0.3-0.5c0,0,0-0.1,0-0.1l1.5-1c0,0,0.1,0,0.1,0l0.3,0.5
		C207.1,439.2,207.1,439.2,207.1,439.3"/>
	<path fill="#005EC6" d="M205.5,439.7c0,0,0,0.1,0,0.1l0,0.1c0,0,0.1,0,0.1,0l1-0.7c0,0,0-0.1,0-0.1l0-0.1c0,0-0.1,0-0.1,0
		L205.5,439.7z M207,439.7l-1,0.7c-0.3,0.2-0.7,0.1-0.9-0.2l0-0.1c-0.2-0.3-0.1-0.7,0.2-0.9l1-0.7c0.3-0.2,0.7-0.1,0.9,0.2l0,0.1
		C207.4,439,207.3,439.4,207,439.7"/>
	<path fill="#FF7361" d="M217.6,436.7L199.3,449c-0.1,0.1-0.3,0.1-0.4-0.1l-0.9-1.3c-0.1-0.1-0.1-0.3,0.1-0.4l18.3-12.4
		c0.1-0.1,0.3-0.1,0.4,0.1l0.9,1.3C217.8,436.4,217.7,436.6,217.6,436.7"/>
	<path fill="#FFFFFF" d="M214.6,458.9c-2.1-3.2-6.3-3.9-9.5-1.8c-3.1,2.1-4,6.3-1.8,9.5L214.6,458.9z"/>
	<path fill="#005EC6" d="M203.5,465.9l10.4-7c-2.1-2.7-5.6-3.2-8.4-1.3C202.6,459.5,201.8,462.9,203.5,465.9 M215.2,459.2l-12,8.1
		l-0.3-0.4c-2.3-3.5-1.6-7.8,1.9-10.2c3.5-2.3,7.8-1.4,10.1,2L215.2,459.2z"/>
	<path fill="#FF7361" d="M210.6,460.6c0.8,1.2,0.5,2.9-0.7,3.7c-1.2,0.8-2.9,0.5-3.7-0.7c-0.8-1.2-0.5-2.9,0.7-3.7
		C208.2,459.1,209.8,459.4,210.6,460.6"/>
	<path fill="#005EC6" d="M209.6,461.3c0.4,0.7,0.3,1.5-0.4,2c-0.7,0.4-1.5,0.3-2-0.4c-0.4-0.7-0.3-1.5,0.4-2
		C208.3,460.5,209.2,460.7,209.6,461.3"/>

		<rect x="203.5" y="464.9" transform="matrix(-0.4753 -0.8798 0.8798 -0.4753 -109.525 866.33)" fill="#005EC6" width="0.1" height="1.8"/>
	<g>
		<path fill="#005EC6" d="M204.6,465.7C204.5,465.7,204.5,465.7,204.6,465.7l-1.6,0.8c-0.1,0.1-0.5-0.4-0.5-0.5
			c0-0.1,0.1-0.1,0.1-0.2l1.6-0.8c0.1,0,0.2,0,0.2,0c0.1,0,0.1,0.1,0.2,0.1l0.1,0.1C204.7,465.5,204.7,465.6,204.6,465.7"/>
	</g>

		<rect x="203.1" y="463.8" transform="matrix(-0.2757 -0.9612 0.9612 -0.2757 -187.5685 788.0818)" fill="#005EC6" width="0.1" height="1.8"/>
	<g>
		<path fill="#005EC6" d="M204.2,464.8C204.1,464.8,204.1,464.8,204.2,464.8l-1.8,0.5c-0.1,0-0.2,0-0.2,0c-0.1,0-0.1-0.1-0.1-0.2
			l0-0.1c0-0.2,0-0.3,0.2-0.4l1.7-0.5c0.2,0,0.3,0,0.4,0.2l0,0.1c0,0.1,0,0.2,0,0.2C204.2,464.7,204.2,464.7,204.2,464.8"/>
	</g>

		<rect x="202.8" y="462.6" transform="matrix(-8.353054e-02 -0.9965 0.9965 -8.353054e-02 -242.0622 704.4123)" fill="#005EC6" width="0.1" height="1.8"/>
	<g>
		<path fill="#005EC6" d="M203.9,463.7c0,0-0.1,0-0.1,0L202,464c-0.1,0-0.2,0-0.2-0.1c-0.1-0.1-0.1-0.1-0.1-0.2l0-0.1
			c0-0.2,0.1-0.3,0.3-0.3l1.8-0.2c0.2,0,0.3,0.1,0.3,0.3l0,0.1C204.1,463.5,204.1,463.6,203.9,463.7
			C204,463.7,204,463.7,203.9,463.7"/>
	</g>

		<rect x="202" y="462.3" transform="matrix(-0.9945 -0.1043 0.1043 -0.9945 356.4774 943.2603)" fill="#005EC6" width="1.8" height="0.1"/>
	<g>
		<path fill="#005EC6" d="M203.9,462.7c-0.1,0-0.1,0.1-0.2,0.1l-1.8-0.2c-0.1,0-0.2,0-0.2-0.1c0-0.1-0.1-0.1-0.1-0.2l0-0.1
			c0-0.2,0.2-0.3,0.3-0.3l1.8,0.2c0.2,0,0.3,0.2,0.3,0.3l0,0.1C204.1,462.6,204,462.6,203.9,462.7
			C204,462.7,203.9,462.7,203.9,462.7"/>
	</g>

		<rect x="202.2" y="461.1" transform="matrix(-0.9559 -0.2938 0.2938 -0.9559 261.8508 961.5825)" fill="#005EC6" width="1.8" height="0.1"/>
	<g>
		<path fill="#005EC6" d="M204.1,461.7C204.1,461.7,204.1,461.7,204.1,461.7c-0.1,0.1-0.2,0.1-0.3,0l-1.7-0.5
			c-0.1,0-0.1-0.1-0.2-0.1c0-0.1,0-0.2,0-0.2l0-0.1c0.1-0.2,0.2-0.2,0.4-0.2l1.7,0.5c0.2,0.1,0.2,0.2,0.2,0.4l0,0.1
			C204.2,461.6,204.2,461.7,204.1,461.7"/>
	</g>

		<rect x="202.7" y="460" transform="matrix(-0.881 -0.4731 0.4731 -0.881 165.3712 961.6187)" fill="#005EC6" width="1.8" height="0.1"/>
	<g>
		<path fill="#005EC6" d="M204.5,460.7C204.5,460.8,204.5,460.8,204.5,460.7c-0.2,0.1-0.2,0.1-0.3,0l-1.6-0.8
			c-0.1,0-0.1-0.1-0.1-0.2c0-0.1,0-0.2,0-0.2l0.1-0.1c0.1-0.1,0.3-0.2,0.4-0.1l1.6,0.8c0.1,0.1,0.2,0.3,0.1,0.4l-0.1,0.1
			C204.6,460.7,204.6,460.7,204.5,460.7"/>
	</g>

		<rect x="203.4" y="459" transform="matrix(-0.7709 -0.6369 0.6369 -0.7709 69.3875 942.9792)" fill="#005EC6" width="1.8" height="0.1"/>
	<g>
		<path fill="#005EC6" d="M205.1,459.9c0,0-0.1,0-0.1,0c-0.1,0-0.2,0-0.2-0.1l-1.4-1.1c-0.1-0.1-0.1-0.1-0.1-0.2
			c0-0.1,0-0.2,0.1-0.2l0.1-0.1c0.1-0.1,0.3-0.1,0.4,0l1.4,1.1c0.1,0.1,0.1,0.3,0,0.4L205.1,459.9
			C205.1,459.8,205.1,459.9,205.1,459.9"/>
	</g>

		<rect x="204.2" y="458.1" transform="matrix(-0.6321 -0.7749 0.7749 -0.6321 -20.2347 906.7122)" fill="#005EC6" width="1.8" height="0.1"/>
	<g>
		<path fill="#005EC6" d="M205.8,459.1c-0.1,0.1-0.3,0.1-0.4-0.1l-1.1-1.4c0-0.1-0.1-0.1-0.1-0.2c0-0.1,0-0.2,0.1-0.2l0.1-0.1
			c0.1-0.1,0.3-0.1,0.4,0l1.1,1.4c0.1,0.1,0.1,0.1,0.1,0.2c0,0.1,0,0.2-0.1,0.2L205.8,459.1C205.8,459.1,205.8,459.1,205.8,459.1"/>
	</g>

		<rect x="205.2" y="457.4" transform="matrix(-0.4724 -0.8814 0.8814 -0.4724 -99.7253 855.28)" fill="#005EC6" width="1.8" height="0.1"/>
	<g>
		<path fill="#005EC6" d="M206.8,458.5C206.8,458.5,206.8,458.5,206.8,458.5l-0.1,0.1c-0.1,0.1-0.3,0-0.4-0.1l-0.8-1.6
			c0-0.1,0-0.2,0-0.2c0-0.1,0.1-0.1,0.1-0.2l0.1-0.1c0.1-0.1,0.3,0,0.4,0.1l0.8,1.6c0,0.1,0,0.2,0,0.2
			C206.9,458.4,206.8,458.5,206.8,458.5"/>
	</g>

		<rect x="206.4" y="457" transform="matrix(-0.2926 -0.9562 0.9562 -0.2926 -169.1514 788.9139)" fill="#005EC6" width="1.8" height="0.1"/>
	<g>
		<path fill="#005EC6" d="M207.7,458.1C207.7,458.1,207.7,458.1,207.7,458.1l-0.2,0.1c-0.1,0-0.2,0-0.2,0c-0.1,0-0.1-0.1-0.1-0.2
			l-0.5-1.7c0-0.1,0-0.2,0-0.2c0-0.1,0.1-0.1,0.2-0.1l0.1,0c0.2,0,0.3,0,0.4,0.2l0.5,1.7C207.9,457.9,207.8,458,207.7,458.1"/>
	</g>

		<rect x="207.5" y="456.7" transform="matrix(-9.877563e-02 -0.9951 0.9951 -9.877563e-02 -225.5321 709.3245)" fill="#005EC6" width="1.8" height="0.1"/>
	<g>
		<path fill="#005EC6" d="M208.8,457.9c0,0-0.1,0-0.1,0l-0.1,0c-0.1,0-0.2,0-0.2-0.1c-0.1-0.1-0.1-0.1-0.1-0.2l-0.2-1.8
			c0-0.1,0-0.2,0.1-0.2c0.1-0.1,0.1-0.1,0.2-0.1l0.1,0c0.2,0,0.3,0.1,0.3,0.3l0.2,1.8C208.9,457.8,208.8,457.9,208.8,457.9"/>
	</g>

		<rect x="209.6" y="455.9" transform="matrix(-0.9954 -9.613109e-02 9.613109e-02 -0.9954 374.3978 931.6113)" fill="#005EC6" width="0.1" height="1.8"/>
	<g>
		<path fill="#005EC6" d="M209.8,457.9c-0.1,0-0.1,0.1-0.2,0.1l-0.1,0c-0.2,0-0.3-0.2-0.3-0.3l0.2-1.8c0-0.2,0.2-0.3,0.3-0.3l0.1,0
			c0.1,0,0.2,0,0.2,0.1c0.1,0.1,0.1,0.1,0.1,0.2l-0.2,1.8C209.9,457.8,209.9,457.9,209.8,457.9C209.8,457.9,209.8,457.9,209.8,457.9
			"/>
	</g>

		<rect x="210.8" y="456.1" transform="matrix(-0.961 -0.2766 0.2766 -0.961 287.0388 954.515)" fill="#005EC6" width="0.1" height="1.8"/>
	<g>
		<path fill="#005EC6" d="M210.8,458.1C210.8,458.1,210.8,458.1,210.8,458.1c-0.1,0.1-0.2,0.1-0.3,0l-0.1,0c-0.2,0-0.2-0.2-0.2-0.4
			l0.5-1.7c0-0.2,0.2-0.2,0.4-0.2l0.1,0c0.1,0,0.1,0.1,0.2,0.1c0,0.1,0,0.2,0,0.2l-0.5,1.7C210.9,458,210.9,458.1,210.8,458.1"/>
	</g>

		<rect x="211.9" y="456.6" transform="matrix(-0.8796 -0.4757 0.4757 -0.8796 180.74 960.6903)" fill="#005EC6" width="0.1" height="1.8"/>
	<g>
		<path fill="#005EC6" d="M211.8,458.5c-0.1,0.1-0.2,0.1-0.3,0l-0.1-0.1c-0.1,0-0.1-0.1-0.1-0.2c0-0.1,0-0.2,0-0.2l0.8-1.6
			c0.1-0.1,0.3-0.2,0.4-0.1l0.1,0.1c0.1,0,0.1,0.1,0.1,0.2c0,0.1,0,0.2,0,0.2l-0.8,1.6C211.8,458.5,211.8,458.5,211.8,458.5"/>
	</g>

		<rect x="212.9" y="457.2" transform="matrix(-0.7806 -0.6251 0.6251 -0.7806 92.818 948.8571)" fill="#005EC6" width="0.1" height="1.8"/>
	<g>
		<path fill="#005EC6" d="M212.6,459.1c0,0-0.1,0-0.1,0.1c-0.1,0-0.2,0-0.2-0.1l-0.1-0.1c-0.1-0.1-0.1-0.3,0-0.4l1.1-1.4
			c0-0.1,0.7,0.3,0.6,0.5L212.6,459.1C212.7,459.1,212.6,459.1,212.6,459.1"/>
	</g>

		<rect x="213.8" y="458.1" transform="matrix(-0.6318 -0.7752 0.7752 -0.6318 -6.8917 914.6927)" fill="#005EC6" width="0.1" height="1.8"/>
	<g>
		<path fill="#005EC6" d="M213.3,459.8c-0.1,0-0.1,0.1-0.2,0.1c-0.1,0-0.2,0-0.2-0.1l-0.1-0.1c-0.1-0.1-0.1-0.3,0-0.4l1.4-1.1
			c0.1-0.1,0.5,0.5,0.5,0.6L213.3,459.8C213.4,459.8,213.3,459.8,213.3,459.8"/>
		<path fill="#FFC640" d="M232.4,446.9c-2.1-3.2-6.3-3.9-9.5-1.8c-3.1,2.1-4,6.3-1.8,9.5L232.4,446.9z"/>
		<path fill="#FFFFFF" d="M221.3,453.9l10.4-7c-2.1-2.7-5.6-3.2-8.4-1.3C220.4,447.5,219.6,451,221.3,453.9 M233,447.2l-12,8.1
			l-0.3-0.4c-2.3-3.5-1.6-7.8,1.9-10.2c3.5-2.3,7.8-1.4,10.1,2L233,447.2z"/>
		<path fill="#FF7361" d="M228.4,448.6c0.8,1.2,0.5,2.9-0.7,3.7c-1.2,0.8-2.9,0.5-3.7-0.7c-0.8-1.2-0.5-2.9,0.7-3.7
			C226,447.1,227.6,447.4,228.4,448.6"/>
		<path fill="#005EC6" d="M227.4,449.3c0.4,0.7,0.3,1.5-0.4,2c-0.7,0.4-1.5,0.3-2-0.4c-0.4-0.7-0.3-1.5,0.4-2
			C226.1,448.5,227,448.7,227.4,449.3"/>
		<path fill="#005EC6" d="M241.9,445.8l-7-10.4c3.2-2.1,6.8-1.2,8.7,1.7C245.5,440,245,443.7,241.9,445.8"/>
		<path fill="#FF7361" d="M191.7,464.6l7,10.4c-3.2,2.1-6.8,1.2-8.7-1.7C188.1,470.4,188.5,466.7,191.7,464.6"/>
		<path fill="#005EC6" d="M239.3,479.1l-0.3,0.2v0l-9.1,6.2c-0.2,0.1-0.3,0.4-0.1,0.7c0.2,0.2,0.4,0.3,0.7,0.1l0.3-0.2v0l9.1-6.2
			c0.2-0.1,0.3-0.4,0.1-0.7C239.8,479,239.5,479,239.3,479.1"/>
		<path fill="#005EC6" d="M224.1,477l0.3-0.2v0l9.1-6.2c0.2-0.1,0.3-0.4,0.1-0.7c-0.2-0.2-0.4-0.3-0.7-0.1l-0.3,0.2l0,0l-9.1,6.2
			c-0.2,0.1-0.3,0.4-0.1,0.7C223.6,477.1,223.9,477.1,224.1,477"/>
		<path fill="#005EC6" d="M229.4,484.7l0.3-0.2v0l9.1-6.2c0.2-0.1,0.3-0.4,0.1-0.7c-0.2-0.2-0.4-0.3-0.7-0.1l-0.3,0.2v0l-9.1,6.2
			c-0.2,0.1-0.3,0.4-0.1,0.7C228.9,484.8,229.2,484.9,229.4,484.7"/>
		<path fill="#005EC6" d="M228.4,483.2l0.3-0.2l0,0l9.1-6.2c0.2-0.1,0.3-0.4,0.1-0.7c-0.2-0.2-0.4-0.3-0.7-0.1l-0.3,0.2l0,0
			l-9.1,6.2c-0.2,0.1-0.3,0.4-0.1,0.7C227.8,483.3,228.1,483.3,228.4,483.2"/>
		<path fill="#005EC6" d="M227.3,481.6l0.3-0.2l9.1-6.2c0.2-0.1,0.3-0.4,0.1-0.7c-0.2-0.2-0.4-0.3-0.7-0.1l-0.3,0.2l0,0l-9.1,6.2
			c-0.2,0.1-0.3,0.4-0.1,0.7C226.8,481.7,227.1,481.8,227.3,481.6"/>
		<path fill="#005EC6" d="M225.2,478.5l0.3-0.2v0l9.1-6.2c0.2-0.1,0.3-0.4,0.1-0.7c-0.2-0.2-0.4-0.3-0.7-0.1l-0.3,0.2l0,0l-9.1,6.2
			c-0.2,0.1-0.3,0.4-0.1,0.7C224.7,478.6,225,478.7,225.2,478.5"/>
		<path fill="#005EC6" d="M226.3,480.1l0.3-0.2v0l9.1-6.2c0.2-0.1,0.3-0.4,0.1-0.7c-0.2-0.2-0.4-0.3-0.7-0.1l-0.3,0.2l0,0l-9.1,6.2
			c-0.2,0.1-0.3,0.4-0.1,0.7C225.7,480.2,226,480.2,226.3,480.1"/>
		<path fill="#005EC6" d="M199.3,477.4L199.3,477.4c-0.4,0.3-0.9,0.2-1.1-0.2l-8.4-12.5c-0.3-0.4-0.2-0.9,0.2-1.1
			c0.4-0.3,0.9-0.2,1.1,0.2l8.4,12.5C199.8,476.6,199.7,477.1,199.3,477.4"/>
		<path fill="#FF7361" d="M243.5,446.8L243.5,446.8c-0.4,0.3-0.9,0.2-1.1-0.2l-8.4-12.5c-0.2-0.4-0.2-0.9,0.2-1.1
			c0.4-0.3,0.9-0.2,1.1,0.2l8.4,12.5C244,446,243.9,446.5,243.5,446.8"/>
		<path fill="#FF7361" d="M209,468.1c1.1,1.7,0.7,3.9-1,5c-1.7,1.1-3.9,0.7-5-1c-1.1-1.7-0.7-3.9,1-5
			C205.6,466,207.8,466.4,209,468.1"/>
		<path fill="#FF7361" d="M238,448.5c1.1,1.7,0.7,3.9-1,5c-1.7,1.1-3.9,0.7-5-1c-1.1-1.7-0.7-3.9,1-5
			C234.7,446.4,236.9,446.8,238,448.5"/>
		<path fill="#FFFFFF" d="M231.5,463.9l-12.2,8.2c-0.5,0.4-1.3,0.2-1.7-0.3l-1.4-2.1c-0.4-0.5-0.2-1.3,0.3-1.7l12.2-8.2
			c0.5-0.4,1.3-0.2,1.7,0.3l1.4,2.1C232.2,462.8,232,463.6,231.5,463.9"/>
		<path fill="#FF7361" d="M217.1,468.9c-0.1,0-0.1,0.1,0,0.2l1.4,2.1c0,0.1,0.1,0.1,0.2,0l12.2-8.2c0.1,0,0.1-0.1,0-0.2l-1.4-2.1
			c0-0.1-0.1-0.1-0.2,0L217.1,468.9z M232.1,464.8l-12.2,8.2c-1,0.7-2.4,0.4-3.1-0.6l-1.4-2.1c-0.7-1-0.4-2.4,0.6-3.1l12.2-8.2
			c1-0.7,2.4-0.4,3.1,0.6l1.4,2.1C233.4,462.7,233.1,464.1,232.1,464.8"/>
	</g>

		<rect x="218.5" y="466.5" transform="matrix(0.8289 -0.5594 0.5594 0.8289 -224.6192 202.9779)" fill="#FF7361" width="2.1" height="4.3"/>

		<rect x="227.5" y="461" transform="matrix(0.8289 -0.5594 0.5594 0.8289 -219.9651 207.0881)" fill="#FF7361" width="2.1" height="4.3"/>

		<rect x="221.4" y="464.5" transform="matrix(0.8289 -0.5594 0.5594 0.8289 -223.0119 204.2787)" fill="#FF7361" width="2.1" height="4.3"/>

		<rect x="224.3" y="462.6" transform="matrix(0.8292 -0.5589 0.5589 0.8292 -221.2602 205.3306)" fill="#FF7361" width="2.1" height="4.3"/>
</g>
<g>
	<path fill="#FFC640" d="M762.7,477.4c-0.6,0.2-1.3-0.5-1.7-0.9c-0.1-0.2-0.3-0.4-0.4-0.6c0.6-0.2,1.3-0.2,1.9,0.3
		C762.8,476.4,763.3,477.2,762.7,477.4 M758.7,480.3c0.2,0.1,1,0.4,1,0.6c0.1,0.2-0.1,0.4-0.2,0.5c-0.3,0.2-0.7,0-0.9-0.2
		c-0.3-0.3-0.4-0.7-0.4-1.2C758.4,480.1,758.6,480.2,758.7,480.3 M763.4,469.4c0.4,0,1.7,0.5,1.2,1.2c-0.5,0.8-1.7-0.6-2.1-0.9
		c0,0-0.1-0.1-0.1-0.1C762.7,469.4,763,469.3,763.4,469.4 M761.9,462.2c0.7,0,1.3,0.6,0.5,1.1c-0.7,0.4-1.5,0.4-2.2,0.2
		c0.1-0.2,0.3-0.4,0.5-0.6C761,462.4,761.4,462.2,761.9,462.2 M758.8,457.6c0.5,0.3,0.7,1,0.5,1.5c-0.2,0.7-0.8,1.1-1.5,1.1
		c-0.5,0-0.9-0.1-1.2-0.4c0-0.2,0-0.4,0-0.6C756.6,458.3,757.8,457,758.8,457.6 M764,475.8c-0.8-1.3-2.4-1.7-3.7-1.2
		c-0.1-0.7-0.1-1.5,0.1-2.1c0.2-0.7,0.5-1.5,1-2.1c0.7,0.7,1.4,1.5,2.4,1.7c0.9,0.2,1.9-0.2,2.3-1.1c0.3-1-0.3-2-1.2-2.5
		c-0.8-0.5-1.9-0.5-2.7-0.2c-0.2,0.1-0.4,0.2-0.6,0.3c-0.9-1.1-1.8-2.5-1.7-3.8c1.4,0.4,3,0.4,4-0.8c0.6-0.8,0.6-1.8-0.1-2.5
		c-0.6-0.6-1.6-0.7-2.5-0.5c-1,0.3-1.8,1-2.2,1.9c-0.1-0.1-0.2-0.1-0.2-0.2c-0.4-0.3-0.9-0.7-1.3-1.2c1.2,0.1,2.4-0.3,3-1.4
		c0.9-1.6,0-4-2-4c-1.3,0-2.4,0.9-2.9,2c-0.7-2.1-0.4-4.8-2.2-6.3c-1.2-1-2.8-1-4.1-0.4c-1.7,0.7-2.7,2.3-3.7,3.8
		c-0.5,0.7,0.7,1.4,1.2,0.7c1.1-1.6,3.1-4.5,5.4-3.2c1.3,0.7,1.5,2.6,1.7,3.9c0.2,1.5,0.6,3.1,1.7,4.1c0.5,1.5,1.7,2.8,3,3.5
		c0,0,0,0,0.1,0c0,0.2-0.1,0.4-0.1,0.5c-0.1,1.7,0.9,3.3,2,4.6c-1,1.1-1.5,2.7-1.5,4.1c0,0.6,0,1.2,0.2,1.8
		c-0.8,0.7-1.4,1.7-1.8,2.7c-0.1-0.1-0.2-0.1-0.3-0.2l-3.7-1.9c-0.8-0.4-1.5,0.8-0.7,1.2c1.4,0.8,2.9,1.5,4.3,2.3
		c-0.1,0.4-0.1,0.8,0,1.2c0.1,1,0.7,1.9,1.7,2.2c0.9,0.3,1.9,0,2.3-0.8c0.5-0.8,0.2-1.7-0.5-2.2c-0.6-0.4-1.3-0.8-1.9-1.1
		c0.2-0.6,0.6-1.2,0.8-1.6c0.1-0.1,0.1-0.2,0.2-0.3c0.4,0.8,1,1.4,1.8,1.8c0.8,0.4,1.8,0.4,2.5-0.2
		C764.5,477.6,764.4,476.5,764,475.8"/>
	<path fill="#FF7361" d="M720.6,448.3c-0.4-0.2-0.5-0.7-0.3-1l10.9-18.9c0.2-0.4,0.7-0.5,1-0.3c0.4,0.2,0.5,0.7,0.3,1L721.6,448
		C721.4,448.3,721,448.5,720.6,448.3"/>
	<path fill="#FF7361" d="M734.6,430.2c-0.8,1.5-2.7,2-4.2,1.1c-1.5-0.8-2-2.7-1.1-4.2c0.8-1.5,2.7-2,4.2-1.1
		C734.9,426.9,735.4,428.7,734.6,430.2"/>
	<path fill="#FFFFFF" d="M743,485.2l-50.9-29.4c-0.8-0.5-1.1-1.5-0.6-2.3l10-17.4c0.5-0.8,1.5-1.1,2.3-0.6l50.9,29.4
		c0.8,0.5,1.1,1.5,0.6,2.3l-10,17.4C744.8,485.4,743.8,485.7,743,485.2"/>
	<path fill="#005EC6" d="M711.9,443.3c-0.4-0.2-0.5-0.7-0.3-1l10.9-18.9c0.2-0.4,0.7-0.5,1-0.3c0.4,0.2,0.5,0.7,0.3,1L713,443
		C712.8,443.3,712.3,443.5,711.9,443.3"/>
	<path fill="#FFFFFF" d="M725.9,425.2c-0.8,1.5-2.7,2-4.2,1.1c-1.5-0.8-2-2.7-1.1-4.2c0.8-1.5,2.7-2,4.2-1.1
		C726.2,421.9,726.7,423.7,725.9,425.2"/>
	<path fill="#FF7361" d="M700.3,437.1l-3.2,5.6c-1.7-1-2.1-2.8-1.2-4.4C696.8,436.8,698.7,436.2,700.3,437.1"/>
	<path fill="#005EC6" d="M696.5,443.7L696.5,443.7c-0.3-0.2-0.4-0.5-0.2-0.8l3.7-6.4c0.2-0.3,0.5-0.4,0.8-0.2
		c0.3,0.2,0.4,0.5,0.2,0.8l-3.7,6.4C697.1,443.8,696.8,443.9,696.5,443.7"/>
	<path fill="#FFFFFF" d="M695.5,445.5l-3.2,5.6c-1.7-1-2.1-2.8-1.2-4.4C692,445.1,693.9,444.5,695.5,445.5"/>
	<path fill="#FF7361" d="M691.7,452L691.7,452c-0.3-0.2-0.4-0.5-0.2-0.8l3.7-6.4c0.2-0.3,0.5-0.4,0.8-0.2c0.3,0.2,0.4,0.5,0.2,0.8
		l-3.7,6.4C692.3,452.1,692,452.2,691.7,452"/>
	<path fill="#FF7361" d="M746.8,484.6L746.8,484.6c-0.6-0.4-0.9-1.2-0.5-1.8l7.6-13.2c0.4-0.6,1.2-0.9,1.8-0.5
		c0.6,0.4,0.9,1.2,0.5,1.8l-7.6,13.2C748.3,484.8,747.4,485,746.8,484.6"/>
	<path fill="#005EC6" d="M747.2,459.9l-5.6-3.2c1-1.7,2.8-2.1,4.4-1.2C747.6,456.4,748.2,458.3,747.2,459.9"/>
	<path fill="#FF7361" d="M740.6,456.1L740.6,456.1c0.2-0.3,0.5-0.4,0.8-0.2l6.4,3.7c0.3,0.2,0.4,0.5,0.2,0.8
		c-0.2,0.3-0.5,0.4-0.8,0.2l-6.4-3.7C740.6,456.7,740.5,456.4,740.6,456.1"/>
	<path fill="#005EC6" d="M740.2,457.7c-4.9-2.8-18-10.4-22.9-13.2c-7.2-4.2-16.5-1.7-20.6,5.5c-4.2,7.2-1.7,16.5,5.5,20.6
		c4.9,2.8,10.8,2.6,15.4-0.2c-0.1,5.3,2.6,10.5,7.5,13.4c7.2,4.2,16.5,1.7,20.6-5.5C749.9,471.1,747.4,461.9,740.2,457.7"/>
	<path fill="#FFC640" d="M694.6,459c-0.3-0.2-0.6-0.5-0.7-0.9c-0.2-0.8,0.2-1.7,1.1-2l29.2-8.5c0.8-0.2,1.7,0.2,2,1.1
		c0.2,0.8-0.2,1.7-1.1,2l-29.2,8.5C695.4,459.3,695,459.2,694.6,459"/>
	<path fill="#FFC640" d="M697.3,464.8c-0.3-0.2-0.6-0.5-0.7-0.9c-0.2-0.8,0.2-1.7,1.1-2l34.1-9.9c0.8-0.2,1.7,0.2,2,1.1
		c0.2,0.8-0.2,1.7-1.1,2l-34.1,9.9C698.1,465.1,697.7,465.1,697.3,464.8"/>
	<path fill="#FFC640" d="M700.8,469l39.9-11.5c1.5-0.4,5.4,4.5,3.8,4.9l-38,11C705.7,473.7,699.3,469.5,700.8,469"/>
	<path fill="#FF7361" d="M718.2,469.3c0.4,0.2,0.7,0.7,0.7,1.2c-0.1,5,2.5,9.7,6.9,12.2c6.6,3.8,15,1.5,18.8-5
		c3.8-6.6,1.5-15-5-18.8l-22.9-13.2c-6.6-3.8-15-1.5-18.8,5c-3.8,6.6-1.5,15,5,18.8c4.3,2.5,9.7,2.4,14-0.1
		C717.3,469.1,717.8,469.1,718.2,469.3 M724.4,485.1c-4.5-2.6-7.5-7.2-8.1-12.4c-4.7,2.1-10.2,1.8-14.8-0.9
		c-7.9-4.5-10.6-14.6-6-22.5c4.5-7.9,14.6-10.6,22.5-6l22.9,13.2c7.9,4.5,10.6,14.6,6,22.5C742.4,486.9,732.3,489.6,724.4,485.1"/>
	<path fill="#FF7361" d="M731.5,414.2c-0.1-0.1-0.1-0.3-0.1-0.4c0-0.4,0.4-0.7,0.8-0.7c5.1,0.2,9.2,2.5,12.2,6.8
		c0.2,0.3,0.2,0.8-0.2,1.1c-0.3,0.2-0.8,0.2-1.1-0.2c-2.7-3.9-6.3-6-11-6.2C731.8,414.5,731.6,414.4,731.5,414.2"/>
	<path fill="#FF7361" d="M732.1,418.4c-0.1-0.1-0.1-0.2-0.1-0.4c0-0.4,0.3-0.8,0.8-0.8c3.5,0,6.1,1.4,7.8,4.4c0.2,0.4,0.1,0.8-0.3,1
		c-0.4,0.2-0.8,0.1-1-0.3c-1.4-2.4-3.5-3.6-6.4-3.6C732.5,418.8,732.3,418.7,732.1,418.4"/>
	<path fill="#FF7361" d="M732.7,422.7c-0.1-0.1-0.1-0.2-0.1-0.3c-0.1-0.4,0.2-0.8,0.7-0.8c1-0.1,2.4,0.1,3.4,1.9
		c0.2,0.4,0.1,0.8-0.3,1c-0.4,0.2-0.8,0.1-1-0.3c-0.6-1.1-1.3-1.2-1.9-1.1C733.2,423,732.9,422.9,732.7,422.7"/>
</g>
<g>
	<path fill="#FF7361" d="M1035.3,385.2c1.2,0,2.2,1,2.2,2.2c0,1.2-1,2.2-2.2,2.2c-1.2,0-2.2-1-2.2-2.2
		C1033.1,386.2,1034.1,385.2,1035.3,385.2 M1035.4,415.6c15.6,0,28.2-12.7,28.1-28.3c0-15.6-12.7-28.2-28.3-28.1
		c-15.6,0-28.2,12.7-28.1,28.3C1007.2,403,1019.8,415.6,1035.4,415.6"/>
	<path fill="#005EC7" d="M1035.3,385.2c1.2,0,2.2,1,2.2,2.2c0,1.2-1,2.2-2.2,2.2c-1.2,0-2.2-1-2.2-2.2
		C1033.1,386.2,1034.1,385.2,1035.3,385.2 M1035.4,397.8c5.8,0,10.4-4.7,10.4-10.5c0-5.8-4.7-10.4-10.5-10.4
		c-5.8,0-10.4,4.7-10.4,10.5C1024.9,393.1,1029.6,397.8,1035.4,397.8"/>
	<path fill="#FFFFFF" d="M1052.9,370.2c2.1,2.2,3.7,4.7,4.9,7.4c1.3,3,1.9,6.2,2,9.5c0,3.3-0.6,6.5-1.9,9.5c-1.1,2.6-2.6,5-4.5,7
		c0.2,0.2,0.4,0.4,0.6,0.6c0.2,0.3,0.5,0.6,0.7,0.8c2.1-2.3,3.8-4.9,5-7.8c1.4-3.3,2.1-6.7,2-10.3c0-3.6-0.7-7-2.1-10.3
		c-1.3-3.1-3.2-5.8-5.5-8.2C1053.7,369.1,1053.3,369.7,1052.9,370.2"/>
	<path fill="#FFFFFF" d="M1011,397.5c1.3,3.1,3.2,6,5.7,8.4c0.1,0.1,0.1,0.1,0.2,0.2c0,0,0,0,0,0c0.4-0.5,0.7-1,1.1-1.5c0,0,0,0,0,0
		c-2.3-2.2-4-4.9-5.3-7.8c-1.3-3-1.9-6.2-2-9.5c0-3.3,0.6-6.5,1.9-9.5c1.1-2.7,2.8-5.2,4.8-7.4c-0.4-0.5-0.8-1-1.2-1.4
		c-2.3,2.3-4,5.1-5.3,8.1c-1.4,3.3-2.1,6.7-2,10.3C1009,390.8,1009.7,394.3,1011,397.5"/>
	<path fill="#FFFFFF" d="M1050.9,372.8c3.6,3.9,5.6,8.9,5.6,14.3c0,5.3-1.9,10.3-5.4,14.2c0.2,0.2,0.4,0.4,0.6,0.6
		c0.2,0.2,0.5,0.5,0.7,0.7c1.8-1.9,3.2-4.2,4.2-6.6c1.2-2.8,1.8-5.9,1.8-9s-0.6-6.1-1.8-9c-1.1-2.5-2.6-4.8-4.5-6.8
		C1051.7,371.8,1051.3,372.3,1050.9,372.8"/>
	<path fill="#FFFFFF" d="M1019.7,372.9c-0.4-0.5-0.8-1-1.3-1.4c-1.9,2-3.4,4.3-4.4,6.8c-1.2,2.8-1.8,5.9-1.8,9c0,3.1,0.6,6.1,1.8,9
		c1.2,2.7,2.8,5.2,4.9,7.3c0.4-0.5,0.8-1,1.3-1.4c-3.9-4-6.1-9.2-6.1-14.8C1014.1,381.9,1016.1,376.8,1019.7,372.9"/>
	<path fill="#FFFFFF" d="M1049.3,375c-0.2,0.3-0.4,0.5-0.6,0.8c2.7,3.2,4.2,7.1,4.2,11.4c0,4.3-1.5,8.3-4.3,11.5
		c0.4,0.5,0.9,0.9,1.3,1.4c3.2-3.6,4.9-8.1,4.9-12.9c0-4.8-1.8-9.3-4.9-12.9C1049.6,374.5,1049.4,374.7,1049.3,375"/>
	<path fill="#FFFFFF" d="M1022.1,375.6c-0.4-0.5-0.8-1-1.2-1.5c-3.2,3.6-5,8.2-5,13.1c0,5.1,2,9.9,5.6,13.5c0.2-0.2,0.4-0.4,0.6-0.7
		c0.2-0.3,0.5-0.5,0.7-0.8c-3.2-3.3-4.9-7.6-4.9-12.1C1017.8,382.9,1019.3,378.9,1022.1,375.6"/>
	<path fill="#FFFFFF" d="M1046.4,378.9c1.7,2.3,2.8,5.2,2.8,8.3c0,3.3-1.1,6.3-3,8.7c0.1,0.1,0.1,0.2,0.2,0.3c0.3,0.4,0.7,0.8,1,1.2
		c2.4-2.9,3.7-6.4,3.7-10.2c0-3.7-1.3-7.1-3.5-9.9C1047.2,377.8,1046.8,378.3,1046.4,378.9"/>
	<path fill="#FFFFFF" d="M1024.5,378.5c-0.4-0.5-0.9-0.9-1.3-1.4c-2.4,2.9-3.7,6.4-3.7,10.2c0,4.1,1.6,7.9,4.4,10.9
		c0.4-0.5,0.9-0.9,1.3-1.4c-2.3-2.5-3.8-5.8-3.8-9.5C1021.4,383.9,1022.6,380.9,1024.5,378.5"/>
	<path fill="#005EC7" d="M1035.3,396.3c4.9,0,8.9-4,8.9-9c0-4.9-4-8.9-8.9-8.9c-4.9,0-8.9,4-8.9,8.9
		C1026.4,392.3,1030.4,396.3,1035.3,396.3 M1035.3,376.5c6,0,10.9,4.8,10.9,10.8c0,6-4.8,10.9-10.8,10.9c-6,0-10.9-4.8-10.9-10.8
		C1024.5,381.4,1029.3,376.5,1035.3,376.5"/>
</g>
<path fill="#FFC640" d="M293.1,327.3c3.1,0,5.7-2.5,5.7-5.7c0-3.1-2.5-5.7-5.7-5.7s-5.7,2.5-5.7,5.7
	C287.4,324.7,290,327.3,293.1,327.3"/>
<path fill="#FF7361" d="M122.8,408.8c3.1,0,5.7-2.5,5.7-5.7c0-3.1-2.5-5.7-5.7-5.7c-3.1,0-5.7,2.5-5.7,5.7
	C117.1,406.2,119.6,408.8,122.8,408.8"/>
<path fill="#FFC640" d="M5.7,264.3c3.1,0,5.7-2.5,5.7-5.7c0-3.1-2.5-5.7-5.7-5.7S0,255.5,0,258.7C0,261.8,2.5,264.3,5.7,264.3"/>
<path fill="#FFC640" d="M322.7,31.6c3.1,0,5.7-2.5,5.7-5.7c0-3.1-2.5-5.7-5.7-5.7c-3.1,0-5.7,2.5-5.7,5.7
	C317,29,319.5,31.6,322.7,31.6"/>
<path fill="#FF7361" d="M610.4,125c3.1,0,5.7-2.5,5.7-5.7c0-3.1-2.5-5.7-5.7-5.7s-5.7,2.5-5.7,5.7C604.7,122.4,607.2,125,610.4,125"
	/>
<path fill="#FFC640" d="M602.1,491.1c3.1,0,5.7-2.5,5.7-5.7c0-3.1-2.5-5.7-5.7-5.7s-5.7,2.5-5.7,5.7
	C596.4,488.6,598.9,491.1,602.1,491.1"/>
<path fill="#FFC640" d="M882.1,187c3.1,0,5.7-2.5,5.7-5.7c0-3.1-2.5-5.7-5.7-5.7c-3.1,0-5.7,2.5-5.7,5.7
	C876.5,184.5,879,187,882.1,187"/>
<path fill="#FF7361" d="M711.6,274.9c3.1,0,5.7-2.5,5.7-5.7c0-3.1-2.5-5.7-5.7-5.7s-5.7,2.5-5.7,5.7
	C705.9,272.3,708.4,274.9,711.6,274.9"/>
<path fill="#FFC640" d="M1157.7,365.7c3.1,0,5.7-2.5,5.7-5.7c0-3.1-2.5-5.7-5.7-5.7c-3.1,0-5.7,2.5-5.7,5.7
	C1152,363.2,1154.5,365.7,1157.7,365.7"/>
<path fill="#FF7361" d="M1131.4,60.3c3.1,0,5.7-2.5,5.7-5.7c0-3.1-2.5-5.7-5.7-5.7s-5.7,2.5-5.7,5.7
	C1125.8,57.8,1128.3,60.3,1131.4,60.3"/>
<path fill="#FF7361" d="M862.2,532.9c3.1,0,5.7-2.5,5.7-5.7c0-3.1-2.5-5.7-5.7-5.7s-5.7,2.5-5.7,5.7
	C856.5,530.3,859.1,532.9,862.2,532.9"/>
<g>
	<path fill="#005EC7" d="M379.5,126.5c1.2-2.1,1.3-4.9,0.2-8.3c-0.9-3-0.9-5.4,0.1-7.3c1-1.8,3.1-3.1,6.1-3.9l-0.3-1.2
		c-6.8,1.7-9.3,6.1-7.1,12.8c0.9,3,0.9,5.4-0.1,7.3s-3.1,3.1-6.1,3.9l0.3,1.2C376,130.1,378.3,128.6,379.5,126.5"/>
</g>
<g>
	<path fill="#005EC7" d="M877.9,71.5c-0.1,2.5,1.1,5,3.5,7.5c2.2,2.2,3.2,4.5,3.2,6.5c-0.1,2.1-1.3,4.2-3.7,6.2l0.8,1
		c5.3-4.6,5.5-9.6,0.7-14.6c-2.2-2.3-3.2-4.5-3.2-6.5c0.1-2.1,1.3-4.2,3.7-6.2l-0.8-1C879.4,66.6,878,69.1,877.9,71.5"/>
</g>
<g>
	<path fill="#005EC7" d="M71,497.2c1.5-2,1.9-4.7,1.4-8.2c-0.5-3.1-0.1-5.5,1.1-7.2c1.3-1.7,3.5-2.7,6.6-3l-0.1-1.3
		c-7,0.7-10,4.8-8.8,11.7c0.5,3.1,0.1,5.5-1.1,7.2s-3.5,2.7-6.6,3l0.1,1.3C67,500.4,69.5,499.2,71,497.2"/>
</g>
<g>
	<path fill="#005EC7" d="M508.5,416.4c-1.1,2.2-1.1,5,0,8.3c1,3,1,5.4,0.1,7.3c-1,1.9-3,3.2-6,4.1l0.3,1.2c6.8-1.9,9.1-6.3,6.8-13
		c-1-3-1-5.4-0.1-7.3c1-1.9,3-3.2,6-4.1l-0.3-1.2C512,412.7,509.7,414.3,508.5,416.4"/>
</g>
<g>
	<path fill="#005EC7" d="M922.2,420.8c-0.7-2.3-2.7-4.3-5.9-5.8c-2.8-1.4-4.6-3.1-5.2-5c-0.6-2-0.2-4.4,1.3-7.1l-1.1-0.6
		c-3.4,6.1-1.9,10.9,4.5,14c2.8,1.4,4.6,3,5.2,5c0.6,2,0.2,4.4-1.3,7.1l1.1,0.6C922.5,425.8,923,423.1,922.2,420.8"/>
</g>
<g>
	<path fill="#005EC7" d="M72.3,57.6c2.3,0.7,5.1,0.2,8.1-1.5c2.7-1.5,5.1-2,7.1-1.4c2,0.6,3.7,2.4,5.1,5.2l1.2-0.6
		c-3.1-6.3-7.9-7.8-14-4.4c-2.7,1.5-5.1,2-7.1,1.4c-2-0.6-3.7-2.4-5.1-5.2l-1.2,0.6C67.9,54.9,69.9,56.9,72.3,57.6"/>
</g>
<g>
	<path fill="#005EC7" d="M1165.8,195c2.4-0.6,4.4-2.5,6.1-5.6c1.5-2.8,3.2-4.5,5.3-5c2-0.6,4.4,0,7.1,1.6l0.7-1.1
		c-6-3.7-10.8-2.3-14.1,3.9c-1.5,2.8-3.2,4.5-5.3,5c-2,0.6-4.4,0-7.1-1.6l-0.7,1.1C1160.7,195,1163.4,195.6,1165.8,195"/>
</g>
<g>
	<g>
		<path fill="#FF7361" d="M397.9,516.1c1.4,0.4,2.2,1.9,1.8,3.3s-1.9,2.2-3.3,1.8c-1.4-0.4-2.2-1.9-1.8-3.3
			C395,516.5,396.5,515.7,397.9,516.1"/>
		<path fill="#FF7361" d="M391.9,522.6l2.9-10.2c-8.6-2.5-13.8-11.4-11.2-20.3l-10.2-2.9C369.3,503.6,377.5,518.4,391.9,522.6"/>
	</g>

		<rect x="393.3" y="516.7" transform="matrix(-0.9612 -0.2758 0.2758 -0.9612 632.3015 1125.1117)" fill="#FF7361" width="4" height="2.9"/>
</g>
<g>
	<g>
		<path fill="#005EC7" d="M1122,504.4c1.3-0.6,2.9-0.1,3.5,1.3c0.6,1.3,0.1,2.9-1.3,3.5c-1.3,0.6-2.9,0.1-3.5-1.3
			S1120.6,505,1122,504.4"/>
		<path fill="#005EC7" d="M1121.8,513.2l-4.6-9.6c-8.1,3.8-17.9,0.6-21.8-7.7l-9.6,4.6C1092.3,514,1108.3,519.7,1121.8,513.2"/>
	</g>

		<rect x="1119.3" y="506.2" transform="matrix(-0.9028 0.4301 -0.4301 -0.9028 2351.9595 483.6011)" fill="#005EC7" width="4" height="2.9"/>
</g>
<g>
	<g>
		<path fill="#005EC7" d="M648.1,4.1c-0.8-1.2-0.4-2.9,0.8-3.7s2.9-0.4,3.7,0.8c0.8,1.2,0.4,2.9-0.8,3.7
			C650.5,5.7,648.9,5.3,648.1,4.1"/>
		<path fill="#005EC7" d="M656.9,3.2l-9,5.6c4.7,7.6,2.7,17.7-5.2,22.6l5.6,9C661.1,32.5,664.8,15.9,656.9,3.2"/>
	</g>

		<rect x="649.4" y="2.9" transform="matrix(0.531 0.8474 -0.8474 0.531 309.1645 -549.9377)" fill="#005EC7" width="4" height="2.9"/>
</g>
<g>
	<g>
		<path fill="#005EC7" d="M166.1,324c-0.1,1.5-1.4,2.6-2.8,2.5c-1.5-0.1-2.6-1.4-2.5-2.8c0.1-1.5,1.4-2.6,2.8-2.5
			C165.1,321.3,166.2,322.5,166.1,324"/>
		<path fill="#005EC7" d="M158.5,319.5l10.6,0.7c0.6-8.9,8.3-15.8,17.5-15.2l0.7-10.6C172.3,293.4,159.5,304.5,158.5,319.5"/>
	</g>

		<rect x="161.6" y="320.4" transform="matrix(7.071211e-02 -0.9975 0.9975 7.071211e-02 -169.0526 462.2197)" fill="#005EC7" width="4" height="2.9"/>
</g>
<path fill="#FFC640" d="M756.6,306.7c3.1,0,5.7-2.5,5.7-5.7c0-3.1-2.5-5.7-5.7-5.7s-5.7,2.5-5.7,5.7
	C750.9,304.2,753.4,306.7,756.6,306.7"/>
<path fill="#FFC640" d="M461.9,258.7c3.1,0,5.7-2.5,5.7-5.7c0-3.1-2.5-5.7-5.7-5.7s-5.7,2.5-5.7,5.7
	C456.2,256.1,458.7,258.7,461.9,258.7"/>
<path fill="#FF7361" d="M296.4,403.1c3.1,0,5.7-2.5,5.7-5.7c0-3.1-2.5-5.7-5.7-5.7s-5.7,2.5-5.7,5.7
	C290.7,400.6,293.3,403.1,296.4,403.1"/>
</svg>
