<?xml version="1.0" encoding="utf-8"?>
<!-- Generator: Adobe Illustrator 18.1.1, SVG Export Plug-In . SVG Version: 6.00 Build 0)  -->
<svg version="1.1" id="Layer_1" xmlns="http://www.w3.org/2000/svg" xmlns:xlink="http://www.w3.org/1999/xlink" x="0px" y="0px"
	 viewBox="0 0 618.1 418" enable-background="new 0 0 618.1 418" xml:space="preserve">
<g>
	<polygon fill="#005EC7" points="127.8,131.4 129.7,143.3 146.1,140.6 153.6,188 165.4,186.1 157.9,138.8 174.3,136.2 172.4,124.4 	
		"/>
	<polygon fill="#005EC7" points="207.3,105.4 204.5,165.1 216.4,165.7 217.6,140.7 239.7,141.8 238.5,166.7 250.5,167.3 
		253.3,107.6 241.4,107 240.3,129.9 218.2,128.8 219.3,105.9 	"/>
	<path fill="#005EC7" d="M310.7,161.2l-7.4-12.7l-5.6,13.9L310.7,161.2z M317.3,172.6l-24.7,2.2l-4.6,11.6l-13.4,1.2l25.2-62.3
		l3.5-0.3l33.4,57.2l-13.2,1.2L317.3,172.6z"/>
	<polygon fill="#005EC7" points="404.9,169.2 377.1,129.4 371.6,163.9 359.8,162.1 369.2,102.9 372.9,103.5 400.3,141.8 
		405.6,108.7 417.4,110.6 408,169.7 	"/>
	<polygon fill="#005EC7" points="472.4,126.2 455.3,145.8 454.9,126.5 442.9,126.8 444.2,186.5 456.1,186.3 455.7,163.7 
		460.2,158.9 476,185.9 490.3,185.6 468.1,149.6 488.5,125.8 	"/>
	<polygon fill="#005EC7" points="264.4,252.2 249,292 251.3,313.8 239.4,315.1 237.1,293.2 213.7,257.6 226.9,256.2 241.5,277.3 
		251.3,253.6 	"/>
	<path fill="#005EC7" d="M419.3,290c-1.8,12.7-13.5,21.5-26.1,19.7c-12.7-1.8-21.5-13.5-19.8-26.1l5.3-37.5l11.8,1.7l-5.3,37.4
		c-0.4,3,0.4,5.9,2.2,8.3c1.8,2.4,4.5,3.9,7.4,4.3c3,0.4,5.8-0.3,8.2-2.1c2.4-1.8,3.9-4.4,4.4-7.3l-0.1,0l5.3-37.5l11.8,1.7
		L419.3,290L419.3,290z"/>
	<g>
		<path fill="#005EC7" d="M298.6,263.3c-1.1,10.3,6.4,19.5,16.6,20.6c10.3,1.1,19.5-6.4,20.6-16.6c1.1-10.3-6.4-19.5-16.6-20.6
			C308.9,245.5,299.7,253,298.6,263.3 M348,268.5c-1.8,17-17.1,29.4-34.1,27.6c-17-1.8-29.4-17.1-27.6-34.1
			c1.8-17,17.1-29.4,34.1-27.6C337.4,236.2,349.8,251.5,348,268.5"/>
	</g>
</g>
<g>
	<path fill="#005EC6" d="M495.4,275.5c-0.8-7.2,4.1-13.4,8.5-18.5c2.7-3.1,5.4-6.2,7.9-9.4c2.7-3.4,5.2-7,7.6-10.7
		c4.7-7.4,8.3-15.3,11.1-23.7c1.3-4.1,2.6-8.3,4.1-12.3c1.5-3.9,3.5-7.7,5.7-11.3c4.1-6.9,9-13.5,11.1-21.4c0.3-0.9,0.5-1.9,0.7-2.9
		c0.1-0.7-0.9-0.8-1.1-0.1c-1.5,8.1-6.3,15-10.5,21.9c-2.2,3.5-4.2,7-5.9,10.8c-1.7,4-3,8.2-4.4,12.3c-1.3,4.2-2.7,8.3-4.5,12.3
		c-1.8,4-3.8,8-6.1,11.7c-4.5,7.4-9.8,14.2-15.5,20.7c-4.4,5.1-9.4,10.9-9.8,18c0,0.8,0,1.7,0.1,2.5
		C494.4,276.4,495.4,276.2,495.4,275.5"/>
	<path fill="#FFC640" d="M597.3,151c10.7-15.2,7.7-35.7-6.7-45.8c-14.4-10-34.6-5.9-45.3,9.4c-10.5,15-7.8,35.1,6.1,45.3
		c-1.1,1.6-2.4,3-3.8,4.3c-0.2,0.2-0.3,0.6-0.1,0.8c1,1,2.2,1.8,3.4,2.5l0.3,0.3c0.1,0.1,0.2,0.1,0.3,0.1c0,0,0,0,0,0
		c0.5,0.2,1.2,0.5,1.8,0.6c0.2,0.1,0.5,0.1,0.7-0.1c0.4-0.1,0.7-0.4,0.9-0.9c0.3-0.7,0.2-1.7,0.2-2.4c0-0.9,0.1-1.8,0.2-2.6l0,0
		C569.3,169.8,587.4,165.1,597.3,151"/>
</g>
<g>
	<path fill="#FF7361" d="M86.5,110.2l-8.4,4c-0.7,0.3-1.5,0-1.9-0.7l-5.1-10.7c-0.3-0.7,0-1.5,0.7-1.9l8.4-4c0.7-0.3,1.5,0,1.9,0.7
		l5.1,10.7C87.5,109,87.2,109.9,86.5,110.2"/>
	<path fill="#005EC6" d="M87.9,108.9l-0.4,0.2l0,0l-11.5,5.5c-0.3,0.1-0.4,0.5-0.3,0.7c0.1,0.3,0.5,0.4,0.7,0.3l0.4-0.2l0,0
		l11.5-5.5c0.3-0.1,0.4-0.5,0.3-0.7C88.5,108.9,88.2,108.8,87.9,108.9"/>
	<path fill="#005EC6" d="M75.6,113.7l0.4-0.2l0,0l11.5-5.5c0.3-0.1,0.4-0.5,0.3-0.7c-0.1-0.3-0.5-0.4-0.7-0.3l-0.4,0.2l0,0
		l-11.5,5.5c-0.3,0.1-0.4,0.5-0.3,0.7C75,113.7,75.3,113.8,75.6,113.7"/>
	<path fill="#005EC6" d="M74.7,111.7l0.4-0.2l0,0l11.5-5.5c0.3-0.1,0.4-0.5,0.3-0.7c-0.1-0.3-0.5-0.4-0.7-0.3l-0.4,0.2l0,0
		l-11.5,5.5c-0.3,0.1-0.4,0.5-0.3,0.7S74.4,111.8,74.7,111.7"/>
	<path fill="#FF7361" d="M102.8,87.3l-52.2,24.8c-0.7,0.3-1.5,0-1.9-0.7L32,76.2c-0.3-0.7,0-1.5,0.7-1.9l52.2-24.8
		c0.7-0.3,1.5,0,1.9,0.7l16.8,35.3C103.8,86.2,103.5,87,102.8,87.3"/>
	<path fill="#FF7361" d="M46.3,35.8L46.3,35.8c-5.1,2.5-7.3,8.6-4.9,13.8l7.8,16.3L67.8,57l-7.8-16.3C57.6,35.6,51.4,33.4,46.3,35.8
		"/>
	<path fill="#FFC640" d="M55.8,55.7c-1.1,0.5-2.8,0.2-3.9-1.7c-0.1-0.1-0.6-0.4-1-0.8c-2-1.5-4-3.1-4.5-4.1c-1.3-2.7-0.1-6,2.7-7.3
		c2.8-1.3,6.1-0.2,7.4,2.6c0.5,1,0.4,3.5,0.3,6c0,0.6,0,1.2,0,1.3C57.7,53.6,56.9,55.1,55.8,55.7"/>
	<path fill="#005EC6" d="M57.6,54.5l-3.9,1.9c-0.1,0-0.1,0-0.2-0.1l-0.3-0.6c0-0.1,0-0.1,0.1-0.2l3.9-1.9c0.1,0,0.1,0,0.2,0.1
		l0.3,0.6C57.7,54.4,57.6,54.5,57.6,54.5"/>
	<path fill="#005EC6" d="M53.7,55.7c0,0-0.1,0.1,0,0.1l0,0.1c0,0,0.1,0.1,0.1,0l3.4-1.6c0,0,0.1-0.1,0-0.1l0-0.1c0,0-0.1-0.1-0.1,0
		L53.7,55.7z M57.5,54.9l-3.4,1.6c-0.4,0.2-0.8,0-1-0.4l0-0.1c-0.2-0.4,0-0.8,0.4-1l3.4-1.6c0.4-0.2,0.8,0,1,0.4l0,0.1
		C58,54.3,57.8,54.8,57.5,54.9"/>
	<path fill="#005EC6" d="M58,55.3l-3.9,1.9c-0.1,0-0.1,0-0.2-0.1l-0.3-0.6c0-0.1,0-0.1,0.1-0.2l3.9-1.9c0.1,0,0.1,0,0.2,0.1l0.3,0.6
		C58.1,55.2,58,55.3,58,55.3"/>
	<path fill="#005EC6" d="M54.1,56.5c0,0-0.1,0.1,0,0.1l0,0.1c0,0,0.1,0.1,0.1,0l3.4-1.6c0,0,0.1-0.1,0-0.1l0-0.1c0,0-0.1-0.1-0.1,0
		L54.1,56.5z M57.9,55.8l-3.4,1.6c-0.4,0.2-0.8,0-1-0.4l0-0.1c-0.2-0.4,0-0.8,0.4-1l3.4-1.6c0.4-0.2,0.8,0,1,0.4l0,0.1
		C58.4,55.1,58.2,55.6,57.9,55.8"/>
	<path fill="#FFFFFF" d="M81,75l-1.9-1.3l2.3,0.2C81.3,74.2,81.2,74.6,81,75 M77.4,74.5l-0.2,2.3c-0.4-0.1-0.8-0.2-1.1-0.4
		L77.4,74.5z M74.7,71.5l1.9,1.3l-2.3-0.2C74.4,72.2,74.5,71.8,74.7,71.5 M78.3,72l0.2-2.2c0.4,0.1,0.8,0.2,1.1,0.4L78.3,72z
		 M78.7,72.6l1.5-2.2c0.3,0.3,0.6,0.6,0.9,1L78.7,72.6z M79.5,73l1.7-0.8c0.1,0.3,0.2,0.7,0.2,1L79.5,73z M79,74.4l1.6,1.1
		c-0.2,0.3-0.5,0.5-0.8,0.7L79,74.4z M78.1,74.2l1.1,2.4c-0.4,0.2-0.9,0.3-1.3,0.3L78.1,74.2z M76.6,74.4L75.5,76
		c-0.3-0.2-0.5-0.5-0.7-0.8L76.6,74.4z M76.9,73.5l-2.4,1.1c-0.2-0.4-0.3-0.9-0.3-1.3L76.9,73.5z M77.3,72.4l-2.2-1.5
		c0.3-0.3,0.6-0.6,1.1-0.8L77.3,72.4z M77.7,71.6l-0.8-1.8c0.3-0.1,0.7-0.1,1-0.2L77.7,71.6z M75.8,69c-2.4,1.1-3.4,4-2.2,6.3
		c1.1,2.4,4,3.4,6.3,2.2c2.4-1.1,3.4-4,2.2-6.3C81,68.8,78.2,67.8,75.8,69"/>
	<path fill="#FF7361" d="M80.7,72c0.7,1.5,0.1,3.4-1.5,4.1c-1.5,0.7-3.4,0.1-4.1-1.5c-0.7-1.5-0.1-3.4,1.5-4.1
		C78.1,69.8,79.9,70.5,80.7,72"/>
	<path fill="#005EC6" d="M58.4,56.2l-3.9,1.9c-0.1,0-0.1,0-0.2-0.1L54,57.4c0-0.1,0-0.1,0.1-0.2l3.9-1.9c0.1,0,0.1,0,0.2,0.1
		l0.3,0.6C58.5,56.1,58.4,56.2,58.4,56.2"/>
	<path fill="#005EC6" d="M54.5,57.4c0,0-0.1,0.1,0,0.1l0,0.1c0,0,0.1,0.1,0.1,0L58,56c0,0,0.1-0.1,0-0.1l0-0.1c0,0-0.1-0.1-0.1,0
		L54.5,57.4z M58.3,56.6l-3.4,1.6c-0.4,0.2-0.8,0-1-0.4l0-0.1c-0.2-0.4,0-0.8,0.4-1l3.4-1.6c0.4-0.2,0.8,0,1,0.4l0,0.1
		C58.8,56,58.6,56.5,58.3,56.6"/>
	<path fill="#005EC6" d="M57.8,57.5l-1.8,0.9c-0.1,0-0.1,0-0.2-0.1l-0.3-0.6c0-0.1,0-0.1,0.1-0.2l1.8-0.9c0.1,0,0.1,0,0.2,0.1
		l0.3,0.6C57.8,57.4,57.8,57.5,57.8,57.5"/>
	<path fill="#005EC6" d="M55.9,57.7c0,0-0.1,0.1,0,0.1l0,0.1c0,0,0.1,0.1,0.1,0l1.3-0.6c0,0,0.1-0.1,0-0.1l0-0.1c0,0-0.1-0.1-0.1,0
		L55.9,57.7z M57.6,58l-1.3,0.6c-0.4,0.2-0.8,0-1-0.4l0-0.1c-0.2-0.4,0-0.8,0.4-1l1.3-0.6c0.4-0.2,0.8,0,1,0.4l0,0.1
		C58.2,57.3,58,57.8,57.6,58"/>
	<path fill="#005EC6" d="M70.3,56.4l-23.2,11c-0.2,0.1-0.4,0-0.4-0.2l-0.8-1.7c-0.1-0.2,0-0.4,0.2-0.4l23.2-11
		c0.2-0.1,0.4,0,0.4,0.2l0.8,1.7C70.5,56.1,70.5,56.3,70.3,56.4"/>
	<path fill="#005EC6" d="M79.4,72.6c0.4,0.8,0,1.8-0.8,2.2c-0.8,0.4-1.8,0-2.2-0.8c-0.4-0.8,0-1.8,0.8-2.2
		C78,71.4,79,71.8,79.4,72.6"/>
	<path fill="#FF7361" d="M96.6,71.1l-6.3-13.1c4-1.9,8-0.2,9.7,3.4C101.8,65,100.6,69.2,96.6,71.1"/>
	<path fill="#005EC6" d="M35.7,84L42,97.1c-4,1.9-8,0.2-9.7-3.4C30.5,90.1,31.7,85.9,35.7,84"/>
	<path fill="#005EC6" d="M70.9,103.8l0.4-0.2l0,0l11.5-5.5c0.3-0.1,0.4-0.5,0.3-0.7c-0.1-0.3-0.5-0.4-0.7-0.3l-0.4,0.2l-11.5,5.5
		c-0.3,0.1-0.4,0.5-0.3,0.7C70.3,103.8,70.6,104,70.9,103.8"/>
	<path fill="#005EC6" d="M73.7,109.7l0.4-0.2l0,0l11.5-5.5c0.3-0.1,0.4-0.5,0.3-0.7c-0.1-0.3-0.5-0.4-0.7-0.3l-0.4,0.2l0,0
		l-11.5,5.5c-0.3,0.1-0.4,0.5-0.3,0.7C73.1,109.7,73.4,109.9,73.7,109.7"/>
	<path fill="#005EC6" d="M71.8,105.8l0.4-0.2l0,0l11.5-5.5c0.3-0.1,0.4-0.5,0.3-0.7c-0.1-0.3-0.5-0.4-0.7-0.3l-0.4,0.2l0,0
		l-11.5,5.5c-0.3,0.1-0.4,0.5-0.3,0.7C71.2,105.8,71.6,105.9,71.8,105.8"/>
	<path fill="#005EC6" d="M72.8,107.8l0.4-0.2l0,0l11.5-5.5c0.3-0.1,0.4-0.5,0.3-0.7c-0.1-0.3-0.5-0.4-0.7-0.3l-0.4,0.2l0,0
		l-11.5,5.5c-0.3,0.1-0.4,0.5-0.3,0.7C72.2,107.8,72.5,107.9,72.8,107.8"/>
	<path fill="#FFFFFF" d="M42.3,100L42.3,100c-0.5,0.2-1,0-1.3-0.4l-7.5-15.8c-0.2-0.5,0-1,0.4-1.3c0.5-0.2,1,0,1.3,0.4l7.5,15.8
		C43,99.2,42.8,99.8,42.3,100"/>
	<path fill="#005EC6" d="M98.3,72.4L98.3,72.4c-0.5,0.2-1,0-1.3-0.4l-7.5-15.8c-0.2-0.5,0-1,0.4-1.3c0.5-0.2,1,0,1.3,0.4l7.5,15.8
		C99,71.6,98.8,72.2,98.3,72.4"/>
	<path fill="#FFFFFF" d="M55,90.9c1,2.1,0.1,4.6-2,5.6c-2.1,1-4.6,0.1-5.6-2c-1-2.1-0.1-4.6,2-5.6C51.5,88,54,88.9,55,90.9"/>
	<path fill="#FFFFFF" d="M91.7,73.4c1,2.1,0.1,4.6-2,5.6c-2.1,1-4.6,0.1-5.6-2c-1-2.1-0.1-4.6,2-5.6C88.2,70.5,90.7,71.3,91.7,73.4"
		/>
	<path fill="#FFFFFF" d="M63.6,90.1l13.1-6.3c1.9,4,0.2,8-3.4,9.7C69.7,95.3,65.5,94.1,63.6,90.1"/>
	<path fill="#005EC6" d="M65.1,90.6c0.8,1.2,1.8,2,3.1,2.4c1.5,0.5,3.2,0.4,4.7-0.4c1.6-0.7,2.7-2,3.3-3.4c0.5-1.2,0.5-2.6,0.1-3.9
		L65.1,90.6z M73.8,94.5c-2,1-4.3,1.1-6.3,0.5c-2.1-0.7-3.8-2.3-4.8-4.4c-0.3-0.5,0-1.1,0.5-1.4l13.1-6.3c0.5-0.2,1.1,0,1.4,0.5
		c1,2.2,1.2,4.5,0.4,6.5C77.4,91.9,75.8,93.6,73.8,94.5"/>
	<path fill="#FFFFFF" d="M61.5,80.8c-1.9-3.9-5.4-4.6-8.7-3.1c-3.2,1.5-4.9,4.8-3.1,8.7L61.5,80.8z"/>
	<path fill="#005EC6" d="M61.6,81l-12.5,6l-0.4-0.8c-1.7-3.6-0.3-7.6,3.3-9.3c3.6-1.7,7.5-0.3,9.3,3.3L61.6,81z"/>
	<path fill="#FFC640" d="M58.2,82.7c0.7,1.5,0.1,3.4-1.5,4.1c-1.5,0.7-3.4,0.1-4.1-1.5c-0.7-1.5-0.1-3.4,1.5-4.1
		C55.6,80.5,57.4,81.2,58.2,82.7"/>
	<path fill="#005EC6" d="M56.9,83.3c0.4,0.8,0,1.8-0.8,2.2c-0.8,0.4-1.8,0-2.2-0.8c-0.4-0.8,0-1.8,0.8-2.2
		C55.5,82.1,56.5,82.5,56.9,83.3"/>
	<path fill="#005EC6" d="M71.9,87.8c0.3,0.6,0,1.2-0.5,1.5c-0.6,0.3-1.2,0-1.5-0.5c-0.3-0.6,0-1.2,0.5-1.5
		C70.9,87,71.6,87.3,71.9,87.8"/>
	<path fill="#005EC6" d="M70.8,88.2c0,0-0.1,0.1,0,0.1c0,0,0.1,0.1,0.1,0c0,0,0.1-0.1,0-0.1C70.9,88.2,70.8,88.2,70.8,88.2
		 M71.8,90.3c-1.1,0.5-2.4,0.1-2.9-1c-0.5-1.1-0.1-2.4,1-2.9c1.1-0.5,2.4-0.1,2.9,1C73.3,88.5,72.9,89.8,71.8,90.3"/>
</g>
<g>
	<path fill="#FFC640" d="M152.5,319.4c-0.7,0.4-1.7-0.3-2.1-0.7c-0.2-0.2-0.4-0.4-0.5-0.6c0.7-0.4,1.4-0.5,2.2,0
		C152.5,318.2,153.2,319,152.5,319.4 M148.4,323.5c0.3,0.1,1.2,0.2,1.3,0.6c0.1,0.2,0,0.5-0.2,0.6c-0.3,0.3-0.8,0.1-1.1-0.1
		c-0.4-0.3-0.6-0.8-0.7-1.3C148,323.4,148.2,323.4,148.4,323.5 M151.9,309.9c0.5,0,2.1,0.3,1.7,1.1c-0.5,1-2.1-0.4-2.6-0.7
		c0,0-0.1-0.1-0.2-0.1C151.1,310.1,151.5,309.9,151.9,309.9 M148.8,301.8c0.9-0.2,1.7,0.4,0.8,1.2c-0.7,0.6-1.7,0.7-2.6,0.6
		c0.1-0.3,0.3-0.5,0.4-0.8C147.8,302.3,148.2,301.9,148.8,301.8 M144.4,297c0.7,0.2,0.9,1,0.9,1.7c-0.1,0.8-0.8,1.4-1.6,1.5
		c-0.6,0.1-1,0-1.5-0.2c-0.1-0.2-0.1-0.4-0.1-0.6C142,298.2,143.1,296.5,144.4,297 M153.8,317.3c-1.1-1.4-3.1-1.5-4.6-0.8
		c-0.2-0.8-0.3-1.7-0.3-2.5c0.1-0.9,0.3-1.8,0.7-2.6c0.9,0.7,1.9,1.5,3.1,1.5c1.1,0,2.2-0.6,2.4-1.7c0.2-1.2-0.7-2.3-1.8-2.7
		c-1-0.4-2.3-0.3-3.2,0.3c-0.2,0.1-0.4,0.3-0.6,0.4c-1.3-1.1-2.5-2.5-2.7-4.1c1.7,0.2,3.5-0.1,4.5-1.7c0.6-1,0.4-2.2-0.6-2.9
		c-0.9-0.6-2-0.5-3-0.1c-1.1,0.5-1.9,1.5-2.3,2.7c-0.1,0-0.2-0.1-0.3-0.1c-0.6-0.3-1.2-0.7-1.7-1.1c1.4-0.1,2.7-0.8,3.2-2.2
		c0.7-2-0.7-4.6-3.1-4.3c-1.5,0.2-2.7,1.4-3.1,2.9c-1.1-2.3-1.3-5.5-3.7-6.9c-1.5-0.9-3.4-0.7-4.9,0.2c-1.8,1.1-2.8,3.2-3.6,5.1
		c-0.4,1,1.1,1.5,1.5,0.6c0.9-2.1,2.8-5.8,5.7-4.7c1.7,0.6,2.2,2.7,2.7,4.2c0.6,1.6,1.2,3.5,2.7,4.5c0.8,1.7,2.5,2.9,4.2,3.6
		c0,0,0,0,0.1,0c0,0.2,0,0.4,0,0.6c0.2,2.1,1.6,3.7,3.1,5.1c-1,1.5-1.2,3.4-1,5.1c0.1,0.7,0.3,1.4,0.5,2.1c-0.8,0.9-1.3,2.2-1.6,3.5
		c-0.1,0-0.3-0.1-0.4-0.1l-4.6-1.6c-1-0.3-1.6,1.2-0.6,1.5c1.8,0.6,3.6,1.2,5.5,1.8c0,0.5,0.1,1,0.2,1.4c0.3,1.1,1.2,2,2.3,2.3
		c1.1,0.2,2.2-0.4,2.6-1.4c0.4-1,0-2-1-2.5c-0.8-0.4-1.6-0.7-2.5-0.9c0.2-0.8,0.4-1.5,0.7-2c0.1-0.1,0.1-0.3,0.2-0.4
		c0.6,0.8,1.4,1.5,2.5,1.8c1,0.3,2.2,0.2,2.8-0.7C154.7,319.3,154.4,318.1,153.8,317.3"/>
	<path fill="#FF7361" d="M98.1,293.1c-0.5-0.2-0.7-0.7-0.5-1.2l9.3-24.1c0.2-0.5,0.7-0.7,1.2-0.5c0.5,0.2,0.7,0.7,0.5,1.2l-9.3,24.1
		C99.1,293.1,98.6,293.3,98.1,293.1"/>
	<path fill="#FF7361" d="M111.1,269.5c-0.7,1.9-2.8,2.8-4.7,2.1c-1.9-0.7-2.8-2.8-2.1-4.7c0.7-1.9,2.8-2.8,4.7-2.1
		C110.9,265.5,111.8,267.6,111.1,269.5"/>
	<path fill="#FFFFFF" d="M131,332.1l-64.7-24.9c-1-0.4-1.5-1.5-1.1-2.5l8.5-22.1c0.4-1,1.5-1.5,2.5-1.1l64.7,24.9
		c1,0.4,1.5,1.5,1.1,2.5l-8.5,22.1C133.1,332,132,332.5,131,332.1"/>
	<path fill="#005EC6" d="M87.1,288.9c-0.5-0.2-0.7-0.7-0.5-1.2l9.3-24.1c0.2-0.5,0.7-0.7,1.2-0.5c0.5,0.2,0.7,0.7,0.5,1.2l-9.3,24.1
		C88.1,288.8,87.5,289,87.1,288.9"/>
	<path fill="#FFFFFF" d="M100.1,265.3c-0.7,1.9-2.8,2.8-4.7,2.1c-1.9-0.7-2.8-2.8-2.1-4.7c0.7-1.9,2.8-2.8,4.7-2.1
		C99.8,261.3,100.8,263.4,100.1,265.3"/>
	<path fill="#FF7361" d="M72.4,283.8l-2.7,7.1c-2.1-0.8-2.9-2.9-2.2-4.9C68.3,284.1,70.3,283,72.4,283.8"/>
	<path fill="#005EC6" d="M69.2,292.2L69.2,292.2c-0.3-0.1-0.5-0.5-0.4-0.9l3.1-8.2c0.1-0.3,0.5-0.5,0.9-0.4c0.3,0.1,0.5,0.5,0.4,0.9
		l-3.1,8.2C69.9,292.2,69.5,292.4,69.2,292.2"/>
	<path fill="#FFFFFF" d="M68.4,294.4l-2.7,7.1c-2.1-0.8-2.9-2.9-2.2-4.9C64.2,294.7,66.2,293.6,68.4,294.4"/>
	<path fill="#FF7361" d="M65.1,302.8L65.1,302.8c-0.3-0.1-0.5-0.5-0.4-0.9l3.1-8.2c0.1-0.3,0.5-0.5,0.9-0.4c0.3,0.1,0.5,0.5,0.4,0.9
		l-3.1,8.2C65.8,302.8,65.4,302.9,65.1,302.8"/>
	<path fill="#FF7361" d="M135.3,330.7L135.3,330.7c-0.8-0.3-1.2-1.2-0.9-2l6.5-16.8c0.3-0.8,1.2-1.2,2-0.9c0.8,0.3,1.2,1.2,0.9,2
		l-6.5,16.8C137,330.7,136.1,331.1,135.3,330.7"/>
	<path fill="#005EC6" d="M131.3,301.9l-7.1-2.7c0.8-2.1,2.9-2.9,4.9-2.2C131.1,297.7,132.1,299.7,131.3,301.9"/>
	<path fill="#FF7361" d="M122.9,298.6L122.9,298.6c0.1-0.3,0.5-0.5,0.9-0.4l8.2,3.1c0.3,0.1,0.5,0.5,0.4,0.9
		c-0.1,0.3-0.5,0.5-0.9,0.4l-8.2-3.1C122.9,299.3,122.8,298.9,122.9,298.6"/>
	<path fill="#005EC6" d="M122.7,300.6c-6.3-2.4-22.9-8.8-29.1-11.2c-9.2-3.5-19.5,1-23,10.2c-3.5,9.2,1,19.5,10.2,23
		c6.3,2.4,13.1,1,17.9-3c0.9,6.2,5,11.8,11.3,14.2c9.2,3.5,19.5-1,23-10.2S131.9,304.1,122.7,300.6"/>
	<path fill="#FFC640" d="M69.8,310.4c-0.4-0.2-0.8-0.5-1-0.9c-0.4-0.9,0-2,0.9-2.5l32.5-15.2c0.9-0.4,2,0,2.5,0.9
		c0.4,0.9,0,2-0.9,2.5l-32.5,15.2C70.8,310.6,70.2,310.6,69.8,310.4"/>
	<path fill="#FFC640" d="M74,316.7c-0.4-0.2-0.8-0.5-1-0.9c-0.4-0.9,0-2,0.9-2.5l38-17.8c0.9-0.4,2,0,2.5,0.9c0.4,0.9,0,2-0.9,2.5
		l-38,17.8C75,316.9,74.5,316.9,74,316.7"/>
	<path fill="#FFC640" d="M78.8,321l44.4-20.7c1.7-0.8,7.1,4.3,5.4,5.1l-42.3,19.8C85.4,325.5,77.1,321.8,78.8,321"/>
	<path fill="#FF7361" d="M99.2,318.1c0.6,0.2,0.9,0.7,1,1.3c0.8,5.9,4.7,10.8,10.2,12.9c8.3,3.2,17.7-1,21-9.3
		c3.2-8.3-1-17.7-9.3-21L93,290.9c-8.3-3.2-17.7,1-21,9.3c-3.2,8.3,1,17.7,9.3,21c5.5,2.1,11.7,1.1,16.3-2.7
		C98,318,98.6,317.9,99.2,318.1 M109.3,335.4c-5.8-2.2-10.1-7.1-11.7-12.9c-5.2,3.3-11.6,3.9-17.4,1.7c-10-3.9-15-15.1-11.2-25.1
		c3.9-10,15.1-15,25.1-11.2l29.1,11.2c10,3.9,15,15.1,11.2,25.1C130.6,334.2,119.3,339.2,109.3,335.4"/>
	<path fill="#FF7361" d="M104.6,251.4c-0.1-0.1-0.2-0.3-0.2-0.5c-0.1-0.5,0.3-0.9,0.8-1c6-0.7,11.2,1.3,15.5,5.7
		c0.3,0.4,0.3,0.9,0,1.3c-0.4,0.3-0.9,0.3-1.3,0c-3.9-4.1-8.5-5.8-14-5.2C105,251.7,104.7,251.6,104.6,251.4"/>
	<path fill="#FF7361" d="M106.1,256.2c-0.1-0.1-0.2-0.3-0.2-0.4c-0.1-0.5,0.2-0.9,0.7-1c4-0.7,7.3,0.6,9.8,3.7
		c0.3,0.4,0.2,0.9-0.1,1.3c-0.4,0.3-0.9,0.3-1.3-0.1c-2.1-2.6-4.8-3.6-8.2-3C106.6,256.6,106.3,256.4,106.1,256.2"/>
	<path fill="#FF7361" d="M107.6,261c-0.1-0.1-0.1-0.2-0.2-0.3c-0.1-0.5,0.1-1,0.6-1.1c1.1-0.3,2.8-0.3,4.3,1.6
		c0.3,0.4,0.2,1-0.1,1.3c-0.4,0.3-1,0.2-1.3-0.1c-0.9-1.2-1.8-1.1-2.4-0.9C108.1,261.4,107.8,261.3,107.6,261"/>
</g>
<g>
	<path fill="#FF7361" d="M337.9,34.8c1.9,2.7,2.6,6,3.3,9.2c0.7,3.4,1.6,6.7,2.9,9.9c1.3,3.2,3.1,6.1,5,9c1.9,2.7,3.9,5.5,4.9,8.8
		c0.8,2.9,0.6,6.2-0.8,8.9c-1.3,2.6-3.7,4.3-6.5,5c-2.8,0.7-5.7,0.5-8.4-0.5c-3.3-1.1-6.1-3.4-8.4-5.9c-5.1-5.5-8.2-12.5-13.4-18
		c-0.6-0.7-1.3-1.3-2-2c-0.4-0.4-1,0.3-0.6,0.6c5.9,5.2,9.1,12.5,14.1,18.4c2.3,2.8,5.1,5.4,8.5,7c2.6,1.2,5.6,1.8,8.5,1.5
		c2.9-0.3,5.6-1.5,7.5-3.7c2-2.3,3-5.5,2.9-8.5c-0.1-3.4-1.6-6.4-3.4-9.2c-1.9-3-4-5.8-5.7-8.9c-1.6-3.2-2.9-6.6-3.7-10.2
		c-0.8-3.3-1.2-6.6-2.7-9.7c-0.4-0.8-0.8-1.5-1.2-2.2C338.4,33.8,337.6,34.3,337.9,34.8"/>
	<path fill="#FF7361" d="M338.7,34.2c-3.2,12.7-11.2,21.6-25.1,26L296,18.1L338.7,34.2z"/>
	<path fill="#005EC6" d="M319.8,57.7L296,18.1l42.7,16.1C336,44.8,329.9,52.8,319.8,57.7"/>
	<path fill="#FF7361" d="M328,52.3l-32-34.2l42.7,16.1C336.8,41.5,333.3,47.6,328,52.3"/>
	<path fill="#005EC6" d="M296,18.1l42.7,16.1c-1,3.9-2.4,7.5-4.4,10.7"/>
	<path fill="#FF7361" d="M296,18.1l42.7,16.1c-0.3,1.2-0.6,2.3-1,3.5"/>
</g>
<g>
	<path fill="#FF7361" d="M321.6,393l5.3-40c0.1-1.1,1.1-1.8,2.2-1.7l70.6,9.4c1.1,0.1,1.8,1.1,1.7,2.2l-5.3,40
		c-0.1,1.1-1.1,1.8-2.2,1.7l-70.6-9.4C322.2,395.1,321.4,394.1,321.6,393"/>
	<path fill="#005EC6" d="M358.9,393.2l4.1-30.8c0.1-1.1,1.1-1.8,2.2-1.7l29.9,4c1.1,0.1,1.8,1.1,1.7,2.2l-4.1,30.8
		c-0.1,1.1-1.1,1.8-2.2,1.7l-29.9-4C359.5,395.3,358.7,394.3,358.9,393.2"/>
	<path fill="#FFFFFF" d="M345.9,392.5l4.4-32.8c0.1-0.5,0.5-0.9,1-0.8l3.4,0.5c0.5,0.1,0.9,0.5,0.8,1l-4.4,32.8
		c-0.1,0.5-0.5,0.9-1,0.8l-3.4-0.5C346.2,393.5,345.8,393,345.9,392.5"/>
	<path fill="#FF7361" d="M347.6,391.2l3.9-29.6c0.1-0.5,0.6-0.9,1.2-0.8c0.6,0.1,1,0.6,0.9,1.1l-3.9,29.6c-0.1,0.5-0.6,0.9-1.2,0.8
		C347.9,392.2,347.5,391.8,347.6,391.2"/>
	<path fill="#FF7361" d="M351.5,369.6c-1.7-0.2-3-1.8-2.7-3.6c0.2-1.7,1.8-3,3.6-2.7c1.7,0.2,3,1.8,2.7,3.6
		C354.8,368.6,353.2,369.9,351.5,369.6"/>
	<path fill="#FFFFFF" d="M337.2,391.4l4.4-32.8c0.1-0.5,0.5-0.9,1-0.8l3.4,0.5c0.5,0.1,0.9,0.5,0.8,1l-4.4,32.8
		c-0.1,0.5-0.5,0.9-1,0.8l-3.4-0.5C337.5,392.4,337.2,391.9,337.2,391.4"/>
	<path fill="#FFC640" d="M338.9,390.1l3.9-29.6c0.1-0.5,0.6-0.9,1.2-0.8c0.6,0.1,1,0.6,0.9,1.1l-3.9,29.6c-0.1,0.5-0.6,0.9-1.2,0.8
		C339.3,391.1,338.8,390.6,338.9,390.1"/>
	<path fill="#FFC640" d="M341,382.3c-1.7-0.2-3-1.8-2.7-3.6c0.2-1.7,1.8-3,3.6-2.7c1.7,0.2,3,1.8,2.7,3.6
		C344.4,381.3,342.8,382.5,341,382.3"/>
	<path fill="#FFC640" d="M333.6,363c-1.7-0.2-3-1.8-2.7-3.6c0.2-1.7,1.8-3,3.6-2.7c1.7,0.2,3,1.8,2.7,3.6
		C336.9,362,335.3,363.2,333.6,363"/>
	<path fill="#FFFFFF" d="M332.3,372.4c-1.7-0.2-3-1.8-2.7-3.6c0.2-1.7,1.8-3,3.6-2.7c1.7,0.2,3,1.8,2.7,3.6
		C335.7,371.4,334.1,372.6,332.3,372.4"/>
	<path fill="#FFC640" d="M385.2,372.5l0.7-5.2c0.1-1.1,1.1-1.8,2.2-1.7l5.2,0.7c1.1,0.1,1.8,1.1,1.7,2.2l-0.7,5.2
		c-0.1,1.1-1.1,1.8-2.2,1.7l-5.2-0.7C385.9,374.5,385.1,373.5,385.2,372.5"/>
	<path fill="#FFFFFF" d="M374.7,371.1l0.7-5.2c0.1-1.1,1.1-1.8,2.2-1.7l5.2,0.7c1.1,0.1,1.8,1.1,1.7,2.2l-0.7,5.2
		c-0.1,1.1-1.1,1.8-2.2,1.7l-5.2-0.7C375.3,373.1,374.6,372.1,374.7,371.1"/>
	<path fill="#FFFFFF" d="M364.2,369.7l0.7-5.2c0.1-1.1,1.1-1.8,2.2-1.7l5.2,0.7c1.1,0.1,1.8,1.1,1.7,2.2l-0.7,5.2
		c-0.1,1.1-1.1,1.8-2.2,1.7l-5.2-0.7C364.8,371.7,364.1,370.7,364.2,369.7"/>
	<path fill="#FFC640" d="M383.8,383.2l0.7-5.2c0.1-1.1,1.1-1.8,2.2-1.7l5.2,0.7c1.1,0.1,1.8,1.1,1.7,2.2l-0.7,5.2
		c-0.1,1.1-1.1,1.8-2.2,1.7l-5.2-0.7C384.4,385.2,383.6,384.3,383.8,383.2"/>
	<path fill="#FFC640" d="M373.2,381.8l0.7-5.2c0.1-1.1,1.1-1.8,2.2-1.7l5.2,0.7c1.1,0.1,1.8,1.1,1.7,2.2l-0.7,5.2
		c-0.1,1.1-1.1,1.8-2.2,1.7l-5.2-0.7C373.8,383.8,373.1,382.9,373.2,381.8"/>
	<path fill="#FFC640" d="M362.7,380.4l0.7-5.2c0.1-1.1,1.1-1.8,2.2-1.7l5.2,0.7c1.1,0.1,1.8,1.1,1.7,2.2l-0.7,5.2
		c-0.1,1.1-1.1,1.8-2.2,1.7l-5.2-0.7C363.3,382.4,362.6,381.5,362.7,380.4"/>
	<path fill="#FFC640" d="M382.3,394.1l0.7-5.2c0.1-1.1,1.1-1.8,2.2-1.7l5.2,0.7c1.1,0.1,1.8,1.1,1.7,2.2l-0.7,5.2
		c-0.1,1.1-1.1,1.8-2.2,1.7l-5.2-0.7C382.9,396.1,382.2,395.1,382.3,394.1"/>
	<path fill="#FFFFFF" d="M371.8,392.7l0.7-5.2c0.1-1.1,1.1-1.8,2.2-1.7l5.2,0.7c1.1,0.1,1.8,1.1,1.7,2.2l-0.7,5.2
		c-0.1,1.1-1.1,1.8-2.2,1.7l-5.2-0.7C372.4,394.7,371.6,393.7,371.8,392.7"/>
	<path fill="#FFC640" d="M361.3,391.3l0.7-5.2c0.1-1.1,1.1-1.8,2.2-1.7l5.2,0.7c1.1,0.1,1.8,1.1,1.7,2.2l-0.7,5.2
		c-0.1,1.1-1.1,1.8-2.2,1.7l-5.2-0.7C361.9,393.3,361.1,392.3,361.3,391.3"/>
	<path fill="#005EC6" d="M369.1,354.4l-10-1.3c0.4-3.1,2.9-4.7,5.7-4.4C367.5,349.1,369.5,351.4,369.1,354.4"/>
	<path fill="#FFFFFF" d="M350.6,353.2L350.6,353.2c0.1-0.7,0.8-1.2,1.5-1.1l24.1,3.2c0.7,0.1,1.2,0.8,1.1,1.5
		c-0.1,0.7-0.8,1.2-1.5,1.1l-24.1-3.2C351,354.6,350.5,353.9,350.6,353.2"/>
	<path fill="#005EC6" d="M361.5,333.9c-0.1-0.2-0.2-0.3-0.2-0.6c0-0.5,0.4-1,0.9-1c6.7-0.3,12.3,2.2,16.7,7.4c0.4,0.4,0.3,1-0.1,1.4
		c-0.4,0.4-1,0.3-1.4-0.1c-4-4.8-8.9-7-15.1-6.7C362,334.3,361.7,334.1,361.5,333.9"/>
	<path fill="#005EC6" d="M362.9,339.3c-0.1-0.1-0.2-0.3-0.2-0.5c-0.1-0.5,0.3-1,0.9-1.1c4.5-0.5,8.1,1.1,10.6,4.7
		c0.3,0.4,0.2,1.1-0.2,1.4c-0.4,0.3-1.1,0.2-1.4-0.2c-2.1-3-5-4.3-8.8-3.9C363.5,339.7,363.1,339.6,362.9,339.3"/>
	<path fill="#005EC6" d="M364.2,344.7c-0.1-0.1-0.1-0.2-0.2-0.4c-0.1-0.5,0.2-1.1,0.7-1.2c1.3-0.3,3.1-0.2,4.6,2
		c0.3,0.4,0.2,1.1-0.2,1.4c-0.4,0.3-1.1,0.2-1.4-0.2c-1-1.4-1.9-1.4-2.6-1.2C364.8,345.2,364.4,345,364.2,344.7"/>
</g>
<g>
	<g>
		<path fill="#FF7361" d="M70.7,181.6c1.2-0.9,2.9-0.6,3.7,0.6c0.9,1.2,0.6,2.9-0.6,3.7c-1.2,0.9-2.9,0.6-3.7-0.6
			C69.2,184.1,69.5,182.4,70.7,181.6"/>
		<path fill="#FF7361" d="M72.1,190.3l-6.1-8.7c-7.3,5.2-17.5,3.7-22.8-3.9l-8.7,6.1C43.1,196.2,59.9,199,72.1,190.3"/>
	</g>
	
		<rect x="68.7" y="183.4" transform="matrix(-0.8153 0.5791 -0.5791 -0.8153 235.3172 294.6868)" fill="#FF7361" width="4" height="2.9"/>
</g>
<g>
	<g>
		<path fill="#005EC7" d="M486.4,49.3c-0.1,1.5-1.4,2.6-2.8,2.5s-2.6-1.4-2.5-2.8c0.1-1.5,1.4-2.6,2.8-2.5S486.5,47.8,486.4,49.3"/>
		<path fill="#005EC7" d="M478.8,44.8l10.6,0.7c0.6-8.9,8.3-15.8,17.5-15.2l0.7-10.6C492.6,18.7,479.8,29.8,478.8,44.8"/>
	</g>
	
		<rect x="481.9" y="45.7" transform="matrix(7.071211e-02 -0.9975 0.9975 7.071211e-02 402.6431 526.4418)" fill="#005EC7" width="4" height="2.9"/>
</g>
<g>
	<g>
		<path fill="#005EC7" d="M537.9,395.1c1.3,0.7,1.8,2.3,1.2,3.6s-2.3,1.8-3.6,1.2c-1.3-0.7-1.8-2.3-1.2-3.6S536.6,394.5,537.9,395.1
			"/>
		<path fill="#005EC7" d="M530.9,400.4l4.7-9.5c-8-4-11.5-13.7-7.3-22l-9.5-4.7C512.1,377.6,517.5,393.7,530.9,400.4"/>
	</g>
	
		<rect x="533" y="395.2" transform="matrix(-0.8946 -0.4469 0.4469 -0.8946 836.3164 990.52)" fill="#005EC7" width="4" height="2.9"/>
</g>
<path fill="#FF7361" d="M177.8,70.4c3.1,0,5.7-2.5,5.7-5.7c0-3.1-2.5-5.7-5.7-5.7s-5.7,2.5-5.7,5.7
	C172.1,67.8,174.6,70.4,177.8,70.4"/>
<path fill="#FFC640" d="M221.3,35c3.1,0,5.7-2.5,5.7-5.7c0-3.1-2.5-5.7-5.7-5.7c-3.1,0-5.7,2.5-5.7,5.7
	C215.6,32.5,218.2,35,221.3,35"/>
<path fill="#FF7361" d="M212.2,352.3c3.1,0,5.7-2.5,5.7-5.7c0-3.1-2.5-5.7-5.7-5.7s-5.7,2.5-5.7,5.7
	C206.5,349.8,209,352.3,212.2,352.3"/>
<path fill="#FF7361" d="M482.9,311.8c3.1,0,5.7-2.5,5.7-5.7c0-3.1-2.5-5.7-5.7-5.7c-3.1,0-5.7,2.5-5.7,5.7
	C477.2,309.2,479.8,311.8,482.9,311.8"/>
<path fill="#FFC640" d="M403.2,201c3.1,0,5.7-2.5,5.7-5.7c0-3.1-2.5-5.7-5.7-5.7c-3.1,0-5.7,2.5-5.7,5.7
	C397.5,198.5,400.1,201,403.2,201"/>
<path fill="#FF7361" d="M240.5,230.1c3.1,0,5.7-2.5,5.7-5.7c0-3.1-2.5-5.7-5.7-5.7c-3.1,0-5.7,2.5-5.7,5.7
	C234.8,227.6,237.4,230.1,240.5,230.1"/>
<path fill="#FFC640" d="M78.2,389.1c3.1,0,5.7-2.5,5.7-5.7c0-3.1-2.5-5.7-5.7-5.7s-5.7,2.5-5.7,5.7
	C72.5,386.5,75.1,389.1,78.2,389.1"/>
<path fill="#FFC640" d="M523.2,88.4c3.1,0,5.7-2.5,5.7-5.7c0-3.1-2.5-5.7-5.7-5.7s-5.7,2.5-5.7,5.7
	C517.5,85.9,520.1,88.4,523.2,88.4"/>
<g>
	<path fill="#005EC7" d="M155.4,248.1c2.2-0.6,4.2-2.5,5.7-5.4c1.4-2.6,3-4.3,5-4.8c1.9-0.5,4.2,0,6.7,1.5l0.6-1
		c-5.7-3.4-10.3-2.1-13.4,3.8c-1.4,2.6-3,4.3-5,4.8c-1.9,0.5-4.2,0-6.7-1.5l-0.6,1C150.6,248.2,153.2,248.7,155.4,248.1"/>
</g>
<g>
	<path fill="#005EC7" d="M136.1,52.1c-0.7-2.2-2.6-4.1-5.6-5.5c-2.7-1.3-4.4-2.9-5-4.8c-0.6-1.9-0.2-4.2,1.3-6.8l-1.1-0.6
		c-3.2,5.8-1.8,10.4,4.2,13.3c2.7,1.3,4.4,2.9,5,4.8s0.2,4.2-1.3,6.8l1.1,0.6C136.3,56.9,136.8,54.3,136.1,52.1"/>
</g>
<g>
	<path fill="#005EC7" d="M407.5,68.9c2.1-1,3.7-3.2,4.6-6.3c0.9-2.8,2.2-4.7,4-5.6c1.8-0.9,4.1-0.8,6.9,0.3l0.4-1.1
		c-6.2-2.4-10.5-0.3-12.5,6.1c-0.9,2.8-2.2,4.7-4,5.6c-1.8,0.9-4.1,0.8-6.9-0.3l-0.4,1.1C402.8,69.8,405.4,69.9,407.5,68.9"/>
</g>
<g>
	<path fill="#005EC7" d="M254.2,382.3c0.6-2.3,0.1-4.8-1.7-7.7c-1.6-2.5-2.1-4.8-1.5-6.7c0.5-1.9,2.1-3.6,4.8-5l-0.6-1.1
		c-5.9,3.1-7.1,7.7-3.7,13.4c1.6,2.5,2.1,4.8,1.5,6.7s-2.1,3.6-4.8,5l0.6,1.1C251.8,386.5,253.6,384.6,254.2,382.3"/>
</g>
<g>
	<path fill="#005EC7" d="M588.2,284.9c-2.4,1.1-4.2,3.5-5.4,7.1c-1.1,3.2-2.7,5.3-4.7,6.3c-2.1,0.9-4.7,0.8-7.8-0.5l-0.5,1.3
		c7,2.8,12,0.5,14.4-6.6c1.1-3.2,2.7-5.3,4.7-6.3c2.1-0.9,4.7-0.8,7.8,0.5l0.5-1.3C593.6,284,590.6,283.8,588.2,284.9"/>
</g>
</svg>
